<?xml version="1.0" encoding="utf-8"?>
<!-- Generator: Adobe Illustrator 19.1.0, SVG Export Plug-In . SVG Version: 6.00 Build 0)  -->
<svg version="1.1" id="Layer_1" xmlns="http://www.w3.org/2000/svg" xmlns:xlink="http://www.w3.org/1999/xlink" x="0px" y="0px"
	 viewBox="109 -109.9 48 48" style="enable-background:new 109 -109.9 48 48;" xml:space="preserve">
<style type="text/css">
	.st0{fill:#FFFFFF;}
</style>
<path class="st0" d="M154.4-109.9h-42.7c-1.5,0-2.6,1.2-2.6,2.6v42.7c0,1.5,1.2,2.6,2.6,2.6h23v-18.6h-6.3v-7.2h6.3v-5.3
	c0-6.2,3.8-9.6,9.3-9.6c2.6,0,4.9,0.2,5.6,0.3v6.5l-3.8,0c-3,0-3.6,1.4-3.6,3.5v4.6h7.2l-0.9,7.2h-6.2v18.6h12.2
	c1.5,0,2.6-1.2,2.6-2.6v-42.7C157-108.7,155.8-109.9,154.4-109.9z"/>
</svg>
