<?xml version="1.0" encoding="utf-8"?>
<!-- Generator: Adobe Illustrator 21.0.0, SVG Export Plug-In . SVG Version: 6.00 Build 0)  -->
<svg version="1.1" id="Layer_1" xmlns="http://www.w3.org/2000/svg" xmlns:xlink="http://www.w3.org/1999/xlink" x="0px" y="0px"
	 viewBox="0 0 48 48" style="enable-background:new 0 0 48 48;" xml:space="preserve">
<style type="text/css">
	.st0{fill:#B8B8B8;}
	.st1{display:none;fill:#FFFFFF;enable-background:new    ;}
	.st2{font-family:'SourceCodePro-Bold';}
	.st3{font-size:30px;}
</style>
<path class="st0" d="M45.4,0H2.6C1.2,0,0,1.2,0,2.6v42.7C0,46.8,1.2,48,2.6,48h42.7c1.5,0,2.6-1.2,2.6-2.6V2.6C48,1.2,46.8,0,45.4,0
	z M22.2,34h-4.4v-8.4h-5.3V34H8V14h4.4v7.8h5.3v-7.7h4.4L22.2,34L22.2,34z M40,34h-4.5l-4.1-10l-1.7-4.3h-0.1
	c0.1,1.1,0.2,2.2,0.4,3.6c0.2,1.3,0.2,2.4,0.2,3.7v7H26V14h4.5l4.1,10l1.7,4.4h0.1c-0.1-1-0.2-2.2-0.4-3.6c-0.2-1.3-0.2-2.6-0.2-3.7
	v-7H40C40,14.1,40,34,40,34z"/>
<text transform="matrix(1 0 0 1 6.25 32.875)" class="st1 st2 st3">HN</text>
</svg>
