<?xml version="1.0" encoding="UTF-8"?>
<svg width="18px" height="18px" viewBox="0 0 18 18" version="1.1" xmlns="http://www.w3.org/2000/svg" xmlns:xlink="http://www.w3.org/1999/xlink">
    <!-- Generator: Sketch 47 (45396) - http://www.bohemiancoding.com/sketch -->
    <title>Group 2</title>
    <desc>Created with Sketch.</desc>
    <defs></defs>
    <g id="Page-1" stroke="none" stroke-width="1" fill="none" fill-rule="evenodd">
        <g id="blog_design_post_v1" transform="translate(-60.000000, -851.000000)" fill="#B8B8B8">
            <g id="Group-2" transform="translate(60.000000, 851.000000)">
                <path d="M2.50116104,0 C3.88018112,0 5,0.970579603 5,2.16682274 C5,3.36306587 3.88018112,4.33389705 2.50116104,4.33389705 C1.11633577,4.33389705 0,3.36306587 0,2.16682274 C0,0.970579603 1.11633577,0 2.50116104,0 L2.50116104,0 Z M0.342215256,18 L4.658075,18 L4.658075,5.97668731 L0.342215256,5.97668731 L0.342215256,18 Z" id="Fill-1"></path>
                <path d="M6,6.29081851 L9.6890789,6.29081851 L9.6890789,7.89166786 L9.74193548,7.89166786 C10.2549553,6.97094673 11.5108175,6 13.3830807,6 C17.2799585,6 18,8.4247943 18,11.5782274 L18,18 L14.1518331,18 L14.1518331,12.3058862 C14.1518331,10.9480798 14.1272186,9.20120868 12.1520922,9.20120868 C10.1495012,9.20120868 9.84376215,10.6810266 9.84376215,12.20862 L9.84376215,18 L6,18 L6,6.29081851 Z" id="Fill-4"></path>
            </g>
        </g>
    </g>
</svg>