<?xml version="1.0" encoding="UTF-8"?>
<svg width="20px" height="17px" viewBox="0 0 20 17" version="1.1" xmlns="http://www.w3.org/2000/svg" xmlns:xlink="http://www.w3.org/1999/xlink">
    <!-- Generator: Sketch 46.2 (44496) - http://www.bohemiancoding.com/sketch -->
    <title>Fill 1</title>
    <desc>Created with Sketch.</desc>
    <defs></defs>
    <g id="Page-1" stroke="none" stroke-width="1" fill="none" fill-rule="evenodd">
        <g id="blog_design_post_v1" transform="translate(-60.000000, -899.000000)" fill="#B8B8B8">
            <path d="M80,901.026671 C79.2468241,901.353899 78.5658875,901.615253 77.6875244,901.680698 C78.5658875,901.157562 79.2291748,900.307627 79.5431691,899.3268 C78.7271944,899.849936 77.866891,900.176736 76.9257291,900.373072 C76.1729637,899.522708 75.1156443,899 73.9860857,899 C71.7273791,899 69.8495701,900.89578 69.8495701,903.315125 C69.8495701,903.642352 69.9144212,903.969152 69.97722,904.295951 C66.5265664,904.100043 63.5159152,902.399743 61.4456051,899.78449 C61.0692224,900.438517 60.8816467,901.157562 60.8816467,901.942053 C60.8816467,903.446016 61.5297474,904.753642 62.5965071,905.538133 C61.9061301,905.538133 61.0199684,905.342224 60.6095183,905.015424 L60.6095183,905.08087 C60.6095183,907.172986 62.1573255,908.872858 64.0396495,909.265103 C63.6632668,909.330977 63.4022205,909.395994 63.0258378,909.395994 C62.7746424,909.395994 62.5497158,909.395994 62.2989308,909.330977 C62.8009112,911.030848 64.3823753,912.273029 66.1391015,912.338475 C64.758758,913.515638 62.9458001,914.169237 61.0010877,914.169237 C60.6870934,914.169237 60.3139943,914.169237 60,914.103792 C61.882324,915.280955 63.9362161,916 66.258132,916 C73.8498163,916 77.8484208,909.46144 77.8484208,903.772815 L77.8484208,903.249679 C78.6693209,902.59608 79.4352207,901.876607 80,901.026671" id="Fill-1"></path>
        </g>
    </g>
</svg>