<?xml version="1.0" encoding="UTF-8"?>
<svg width="20px" height="20px" viewBox="0 0 20 20" version="1.1" xmlns="http://www.w3.org/2000/svg" xmlns:xlink="http://www.w3.org/1999/xlink">
    <!-- Generator: Sketch 46.2 (44496) - http://www.bohemiancoding.com/sketch -->
    <title>Fill 1</title>
    <desc>Created with Sketch.</desc>
    <defs></defs>
    <g id="Page-1" stroke="none" stroke-width="1" fill="none" fill-rule="evenodd">
        <g id="blog_design_post_v1" transform="translate(-60.000000, -849.000000)" fill="#B8B8B8">
            <path d="M78.8962857,849 L61.104,849 C60.4942857,849 60,849.494 60,850.103714 L60,867.896286 C60,868.506 60.4942857,869 61.104,869 L70.6825714,869 L70.6825714,861.255143 L68.0762857,861.255143 L68.0762857,858.236571 L70.6825714,858.236571 L70.6825714,856.010571 C70.6825714,853.427429 72.2602857,852.020571 74.5648571,852.020571 C75.6685714,852.020571 76.6171429,852.102857 76.8937143,852.139714 L76.8937143,854.839143 L75.2957143,854.84 C74.0422857,854.84 73.7997143,855.435429 73.7997143,856.309429 L73.7997143,858.236571 L76.7885714,858.236571 L76.3997143,861.255143 L73.7997143,861.255143 L73.7997143,869 L78.8962857,869 C79.506,869 80,868.506 80,867.896286 L80,850.103714 C80,849.494 79.506,849 78.8962857,849" id="Fill-1"></path>
        </g>
    </g>
</svg>