<?xml version="1.0" encoding="utf-8"?>
<!-- Generator: Adobe Illustrator 19.1.0, SVG Export Plug-In . SVG Version: 6.00 Build 0)  -->
<svg version="1.1" id="Layer_1" xmlns="http://www.w3.org/2000/svg" xmlns:xlink="http://www.w3.org/1999/xlink" x="0px" y="0px"
	 viewBox="0 0 48 48" style="enable-background:new 0 0 48 48;" xml:space="preserve">
<style type="text/css">
	.st0{display:none;fill:#FFFFFF;}
	.st1{font-family:'SourceCodePro-Bold';}
	.st2{font-size:30px;}
	.st3{fill:#FFFFFF;}
</style>
<text transform="matrix(1 0 0 1 6.25 32.875)" class="st0 st1 st2">HN</text>
<path class="st3" d="M45.4,0H2.6C1.2,0,0,1.2,0,2.6v42.7C0,46.8,1.2,48,2.6,48h42.7c1.5,0,2.6-1.2,2.6-2.6V2.6C48,1.2,46.8,0,45.4,0
	z M38.1,16.5c0,0.3,0,0.6,0,0.9c0,9.5-7.3,20.5-20.5,20.5c-4.1,0-7.9-1.2-11.1-3.2c0.6,0.1,1.1,0.1,1.7,0.1c3.4,0,6.5-1.2,9-3.1
	c-3.2-0.1-5.8-2.1-6.7-5c0.4,0.1,0.9,0.1,1.4,0.1c0.7,0,1.3-0.1,1.9-0.3C10.5,25.9,8,23,8,19.5c0,0,0-0.1,0-0.1
	c1,0.5,2.1,0.9,3.3,0.9c-1.9-1.3-3.2-3.5-3.2-6c0-1.3,0.4-2.6,1-3.6c3.6,4.4,8.9,7.2,14.9,7.5c-0.1-0.5-0.2-1.1-0.2-1.6
	c0-4,3.2-7.2,7.2-7.2c2.1,0,4,0.9,5.3,2.3c1.6-0.3,3.2-0.9,4.6-1.8c-0.5,1.7-1.7,3.1-3.2,4c1.5-0.2,2.8-0.6,4.1-1.1c0,0,0,0,0,0l0,0
	c0,0,0,0,0,0C40.8,14.2,39.6,15.4,38.1,16.5z"/>
</svg>
