<?xml version="1.0" encoding="utf-8"?>
        <!-- Generator: Adobe Illustrator 21.1.0, SVG Export Plug-In . SVG Version: 6.00 Build 0)  -->
        <svg version="1.1"
             id="svg2" inkscape:version="0.48.0 r9654" sodipodi:docname="destinations.svg" xmlns:cc="http://creativecommons.org/ns#" xmlns:dc="http://purl.org/dc/elements/1.1/" xmlns:inkscape="http://www.inkscape.org/namespaces/inkscape" xmlns:rdf="http://www.w3.org/1999/02/22-rdf-syntax-ns#" xmlns:sodipodi="http://sodipodi.sourceforge.net/DTD/sodipodi-0.dtd" xmlns:svg="http://www.w3.org/2000/svg"
             xmlns="http://www.w3.org/2000/svg" xmlns:xlink="http://www.w3.org/1999/xlink" x="0px" y="0px" viewBox="0 0 948 862.5"
             style="enable-background:new 0 0 948 862.5;" xml:space="preserve">
        <style type="text/css">
            .st0{fill:#7E8722;stroke:#FFFFFF;stroke-width:0.8;stroke-miterlimit:3.9829;}
            .st1{fill:#CDD3CB;stroke:#FFFFFF;stroke-width:0.8;stroke-miterlimit:3.9829;}
            .st2{opacity:0.99;fill:#CDD3CB;stroke:#FFFFFF;stroke-width:0.8;stroke-miterlimit:3.9829;enable-background:new    ;}
            .st3{fill:#5B6829;stroke:#FFFFFF;stroke-width:0.8;stroke-miterlimit:3.9829;}
            .st4{fill:#B2B22B;stroke:#FFFFFF;stroke-width:0.8;stroke-miterlimit:3.9829;}
            .st5{fill:#848128;stroke:#FFFFFF;stroke-width:0.8;stroke-miterlimit:3.9829;}
            .st6{fill:#4E5116;stroke:#FFFFFF;stroke-width:0.8;stroke-miterlimit:3.9829;}
            .st7{fill:#747B1F;stroke:#FFFFFF;stroke-width:0.8;stroke-miterlimit:3.9829;}
            .st8{fill:#FFFFFF;stroke:#FFFFFF;stroke-width:0.8;stroke-miterlimit:3.9829;}
            .st9{fill:#CDD3CB;fill-opacity:0;}
            .st10{fill:#FFD137;}
            .st11{enable-background:new    ;}
            .st12{fill:#4E5116;}
            #destHovers{display: none; opacity: 0;}
            
        </style>
        <sodipodi:namedview  bordercolor="#666666" borderopacity="1" gridtolerance="10" guidetolerance="10" id="namedview286" inkscape:current-layer="svg2" inkscape:cx="467.80516" inkscape:cy="356.98116" inkscape:pageopacity="0" inkscape:pageshadow="2" inkscape:window-height="949" inkscape:window-maximized="1" inkscape:window-width="1280" inkscape:window-x="0" inkscape:window-y="25" inkscape:zoom="0.88015401" objecttolerance="10" pagecolor="#ffffff" showgrid="false">
        </sodipodi:namedview>

        <!--MADAGASCAR-->    
        <a class="mg" xlink:href="http://wikipedia.org/" >

          <g id="mg" transform="matrix(4.8051744,0,0,4.8051744,-5600.1838,-2982.1779)">
            <path id="path2622" inkscape:connector-curvature="0" class="st0" d="M1325.8,741.1c0.3,1.2-0.4,2.6,0.6,3.7
                c0.5,0.5,0.5,1.1,0.7,1.7c0.2,0.5,0.8,0.6,0.2,1.2c-0.6,0.6-0.5,2.5-0.1,3.3c0.4,0.6,0.7,1.1,0.9,1.8c0.3,0.9,1,1.2,1.7,1.7
                c-1-0.5-0.1,0.2,0.1,0.2c0.4,0.1,0.7,0.1,1.1,0.1c0.9,0.2,1.4,1,2.3,1.2c1.5,0.3,3.1-1.4,4.5-1.8c0.5-0.1,1.1,0.1,1.5,0
                s0.7-0.3,1.1-0.4c0.6-0.1,0.9-0.7,1.1-1.1c0.3-0.5,0.5-1.1,0.7-1.7c0.2-0.8,0.8-1.5,1.1-2.2c0.5-1.4,1.1-2.8,1.5-4.2
                c0.6-2.1,1.6-3.9,2.4-5.9c0.7-1.6,1.1-3.3,1.9-4.9c0.2-0.5,0.7-1.2,0.5-1.7c0.3,0,0.6-1,0.7-1.2c0.5-1.1,0.7-2.3,1.3-3.4
                c0.8-1.6,1.4-2.9,1.8-4.6c0.3-1.3-0.7-3.1,1.1-4c0.3-0.2,0.7-1.1,0.8-1.5c0-0.4-0.1-0.7,0-1.1c0.1-0.5-0.6-0.4-0.6-0.9
                c0-0.3-0.4-3,0.6-2.7c0.9,0.3,0.6,1.8,1.4,2.1c0.9,0.3,1.5-1.9,1.6-2.4c0.1-0.7-0.4-1-0.6-1.6c-0.4-1.1-0.4-2.2-0.4-3.3
                c-0.1-2.1-0.7-4.3-1.6-6.2c-0.1,0.1-0.3,0.2-0.4,0.3c0.1-0.3,0-0.3-0.2-0.5c-0.3-0.3,0.2-0.5-0.1-0.8c-0.3-0.3-0.5-1.4-1.2-1
                c0-0.1-0.1-0.3,0-0.4c1.2,0.1-0.6-1.5-0.4-0.2c0.1,0.5-1.2,1.5-1.8,1.5c1.1,0.5,0.4,1.9,0.2,2.5c-0.3,0.9-0.3,1.5-1.6,1.6
                c0.2,0.7-0.1,0.1-0.5,0.5c-0.3,0.3-0.3,0.7-0.4,1c-0.3,0-1.5-2.2-1.7-0.6c-0.1,0.5,0.2,0.9,0.4,1.4c0.2,0.4-0.2,1.6-0.2,0.8
                c-0.1,0.4-1.6,0.5-1,1.4c0.3,0.5,1.5,0.3,1,1.1c0.2-0.6-0.6-0.7-1.1-0.4c-0.6,0.4-0.6,1.4-1.5,1.6c-0.1-0.5,0.5-1,0.4-1.5
                c-0.6,0.1-0.5,0.5-0.7,0.9s-1,0.6-1.1,1c-0.1,0.3,0.3,0.7,0.4,0.9c0.3,0.5-0.7,0.6-1.1,0.8c0.1-0.3,0.8-1.3-0.2-1.3
                c-0.6,0-1,0.6-1.5,0.9c-0.3,0.2-1.1,0.5-1,0.9c0,0.2-0.1,0.5-0.1,0.6c0.1,0.3,0.5,0.2,0.6,0.5c-0.4,0-0.9,0.1-1-0.5
                c-0.1-0.7-0.9-0.7-0.9,0c-0.2-0.3-1.1-0.3-1.4-0.2c-0.4,0.2-0.2,0.8-0.5,1c0-0.7-1-0.2-1,0.3c-0.1-0.2-0.3-0.4-0.5-0.6
                c-0.5,0.3-0.9,0.8-1.4,1s-1.5-0.2-1.9,0.1c-0.2,0.2,0,1.6-0.2,1.4c0.2,0.6-0.3,1.2-0.6,1.7c-0.5,0.8-2.2,2.2-1.6,3.1
                c0.4,0.6,0.1,1.8,0.1,2.5c0.1,0.8,0.8,1.6,0.8,2.4c0,0.8-0.1,1.3,0.4,2s0.2,1.1,0,1.8c-0.2,0.5,0.6,0.7,0.2,1.2
                c-0.4,0.6-0.9,1.2-1.3,1.7c-0.4,0.6-1,1.2-1.3,1.9c-0.2,0.5,0,1.4-0.8,1.6c-0.9,0.3-1.1,0.3-1.2,1.2
                C1326.9,739.6,1326.1,740.3,1325.8,741.1"/>
            <path id="path2624" inkscape:connector-curvature="0" class="st0" d="M1349.6,704.3c0.2-0.3,0-0.6-0.3-0.9
                C1348.9,703.7,1349,704.3,1349.6,704.3"/>
            <path id="path2628" inkscape:connector-curvature="0" class="st0" d="M1356,718.5c0-0.1,0-0.1,0-0.2c-0.2,0.4-0.9,0.8-0.6,1.3
                C1355.7,719.2,1355.8,718.8,1356,718.5"/>
	   </g>    

        </a>

        <!--UGANDA-->    
        <a class="ug" xlink:href="http://wikipedia.org/" >

            <path id="ug" inkscape:connector-curvature="0" class="st3" d="M501.5,151.6c1.3-3.2,0.9-7.5,1.5-10.9c0.7-4.3,0.7-8.6,1.8-12.8
                c0.9-3.7,4.3-7.4,4.8-10.9c0.2-1.7-0.4-3.3,0-5c0.6-2.6,3.5-2,4.8-3.9c4.2-5.8,10.7-10.5,16.4-15.6c2.2-2,5.5-4.9,6.4-7.6
                c0.8-2.2-4-4.5-5.8-5.4c-1.5-0.7-3.7,1.4-4.8-0.7c-0.9-1.7-0.2-3.9,0.2-5.6c1.2-5.2-1-9.3,2-14c0.9-1.4-1.2-1.9-0.7-3.3
                c0.6-1.5,2.1-2.7,3.5-3.7s3-1.9,4.8-1.6c1.5,0.2,4.4,3,5.9,2.4c1.9-0.7,4.7-3.8,6.8-1.5c2.2,2.5,2.8,3.4,6.6,4.6
                c-1-3.3,3.8-4.3,6.5-4.6c3.4-0.4,7.5-2.6,10.9-2.3c4.6,0.5,5.9,3.8,10.9,0.7c3.6-2.2,6.1-5.4,8.9-8.3c1.6,1.9,3.3,4.5,2.3,7
                c3.2-0.3,1,1.6,4,2.7c2.9,1.1,4,1.8,3.2,4.7c-1.6,5.7,3.2,10.1,6.3,14.9c0.7,1,3.7,4.6,3.6,5.6c-0.1,2,1.3,4.3,1.9,6.2
                c1,3.4,1,7.8-0.6,11.2c-1.4,2.9-4,4-3.3,7.3c0.4,1.7-2.9,2.8-4.4,3.5c-2.9,1.3-3,4.7-4.8,7.2c-1.3,1.9-3.9,2.7-4.8,4.7
                c-1.2,2.6-2.2,5.1-3.6,7.6c-1.1,2.1-0.4,24.1-0.9,24.1c-19.5,0-39.4,0.9-58.9-0.4c-6.7-0.4-14,0.7-18,5.3c-1.3,1.5-3.9,5.2-6.5,3.6
                c-0.6-0.4-0.8-2.2-1.9-1.9c-1.5,0.4-2.9,1.2-4.5,1.2C502.3,154.6,502.1,153,501.5,151.6"/>

        </a>

        <!--MOZAMBIQUE-->     
        <a class="mz" xlink:href="http://wikipedia.org/" >

            <g id="mz" transform="matrix(4.8051744,0,0,4.8051744,-5594.47,-2467.6289)">
                <path id="path3382" inkscape:connector-curvature="0" class="st4" d="M1291.8,632.8c0.1-0.4,0.2-0.7,0.2-1.1
                    C1291.8,632,1291.6,632.4,1291.8,632.8"/>
                <path id="path3384" inkscape:connector-curvature="0" class="st4" d="M1296,620.4c0.3-0.3,0.3-0.4-0.2-0.4
                    C1295.9,620.2,1296,620.3,1296,620.4"/>
                <path id="path3462" inkscape:connector-curvature="0" class="st4" d="M1270.5,603.9c3.1-1,6.3-2,9.4-3c0.7-0.2,1.4-0.4,2.1-0.7
                    c0.2-0.1,1.2-0.6,1.5-0.5c0.5,0.1,0.2,0.5,0.4,0.8c0.5,0.6,1,1.1,1.5,1.6c0-0.5,1.2-0.3,1.7-0.4c0.5-0.1,1.1-0.5,1.5-0.1
                    c0.7,0.8,0.7,2.7,0.3,3.5c-0.5,1.1-1.5,2.1-0.8,3.2c0.2,0.3,0.1,0.6,0.3,0.8c0.2,0.3,0.6,0.4,0.8,0.7c0.4,0.6,1,1.1,1.6,1.5
                    s0.5,0.5,0.1,1c-0.4,0.6,0.9,0.8,1,0s-0.2-1.4-0.7-2c0.8-0.5,0.4-1.5,1.5-1.8c1.6-0.3,1.7-0.9,1.7-2.3c0-0.5-0.1-1-0.1-1.5
                    c0.1-0.8,0.6-1.7,0.1-2.5c-0.4-0.8-1.3-1.6-1.8-2.3s-1-1.4-1.6-2.1c-0.5-0.5-1.3-0.5-1.7-0.9c-0.7-0.7-0.2-2.2-0.4-3
                    c-0.2-0.8-0.6-1.6-0.4-2.4c0.1-0.5,0.5-1,0.8-1.5c0.3-0.6,0.2-0.9,1.1-0.9c1,0,2.2,0.2,3.2,0c0.6-0.1,1.1-0.7,1.7-0.4
                    c0.4,0.2,0.6,0.7,1.1,0.9c0.3,0.2,1.5,0.2,1.9,0.1c0.6-0.1,1.1-1.1,1.8-0.4c1.3,1.2,2.9-0.2,3.6-1.1c0.4-0.5,1-0.5,1.5-0.2
                    c0.9,0.5,1.1,0.5,2,0c0.7-0.4,1.3-0.7,2.2-0.6c0.5,0.1,1.6-0.8,2.1-1c1-0.4,1.8-0.9,2.7-1.5c1-0.7,1.7,0.5,0.8,0.8
                    c0.1,0.1,0.3,0.1,0.4,0.2c-0.4,0.5-0.2,1-0.4,1.5c-0.1,0.3-0.9,0.6-0.4,0.9c0.4,0.2,0.3,1.5,0.4,2c0,0.4,0.1,0.7,0,1.1
                    c-0.1,0.6-0.3,0.4-0.1,0.9c0,0.2,0,0.4,0,0.5c-0.1,0.3,0.2,0.4,0.3,0.7c0.2,0.4,0,1-0.4,1.4c1.1,0.1-0.3,2.3,0.1,2.4
                    c0.8,0.2,0,2.5,0.3,3c0.9-0.4-0.1,1,0.1,1.3c0.1-0.6,0.8-0.5,0.7,0.1c-0.1,0.7,0.1,1.1-0.8,1.5c0.1,0.1,0.3,0.2,0.5,0.3
                    c-0.9-0.2-0.1,0.1-0.4,0.4c-0.2,0.2-0.4,0.2-0.5,0.5c0.9-0.3,0.1,1,0,1.2c-0.5,0.8-1.4,1.3-1.9,2.1s-1.2,1.3-1.7,2.1
                    c-0.4,0.6-3,1.4-3,2c0,0.3-2,0.6-2.4,0.8s-0.8,0.3-1.2,0.4c-0.6,0.2-0.5-0.1-1,0.3c-0.7,0.5-1.6,0.8-2.4,1.2s-2.1,2-2.9,1.4
                    c1.7,1.6-2.4,2.2-2,3.8c-0.3,0-0.6-0.2-0.7-0.4c0.1,0.6-0.5,1.3-0.4,0.5c-0.8,0.6-1.7,1-2.3,1.7c-0.6,0.6-1.1,1.2-1.7,1.8
                    c-0.3,0.2-1.4,1.2-1.7,0.8c-0.3-0.3-0.6-1.2-1.1-0.9c1-0.1,0.6,1,0.8,1.3c0.2,0.2,0.2,0.6,0,0.9c-0.1,0.1-0.2,0.2-0.3,0.2
                    c0.1,0.2,0.2,0.4,0.1,0.6c-0.1,1.1,0.3,0.8,1,1.5c0.4,0.4,0.5,0.9,0.5,1.4c0,0.2-0.2,1.7,0.1,0.8c-0.2,0.8,0.4,1.7,0.5,2.6
                    c0.1,0.5,0.3,1,0.2,1.6c-0.1,0.4-0.3,0.9,0.2,1.2c0.1-0.5,0.1-1,0.5-1.5c0,0.2,0,1.4,0.2,0.4c-0.1,0.6-0.3,1.1-0.3,1.7
                    c-0.1,0.5,0.4,1,0.3,1.5c-0.2,1.4-1.4,2.7-1.1,4.2c-0.1-0.8,0.5,0,0.6-0.7c0.6,0.9-0.6,2.2-1.2,2.9c-1.1,1-2.6,1.5-4.1,2
                    c-1.7,0.5-3.3,1-4.8,1.9c-0.7,0.4-1.4,0.7-1.7,1.4c-0.3,0.6-0.5,1.2-1.3,1.3c0.6,0,1.4,1.7,1.9,0.7c-0.1,0.9,0.4,3.2-0.6,3.1
                    l-2.5-0.1c0.1-0.7-0.4-1.4-0.4-2c0-0.5-0.2-1.2-0.6-1.6c-0.4-0.4-0.2-0.9,0.2-1.4c0.3-0.3,0-1.5,0-1.9c0-0.8,0.1-1.7,0.2-2.5
                    s-0.2-1.3-0.3-2c-0.2-1.1-1.1-2-1.3-3c-0.1-0.5,0.1-1.1,0-1.6c-0.1-0.7-0.4-1.4-0.7-2.2c-0.3-0.9,0.7-1.5,1.4-2.1
                    c0.5-0.5,3-3.5,3.6-3.1c-0.7-0.7,0-1.2,0.2-1.9c0.1-0.4-0.4-1.1,0.2-1.4c0.8-0.4,1-1,1.4-1.7c0.2-0.3,0.5-0.6,0.6-0.9
                    c0.2-0.5-0.1-0.9-0.1-1.4c-0.1,0-0.3,0.1-0.4,0.1c-0.3-0.9-0.3-1.5,0.1-2.4c0.2-0.4-0.9-0.3-0.7-0.9c0.1-0.5,1.3-0.5,1-1.1
                    c-0.4-0.7,0.6-0.6,0.5-1.3c-0.1-0.5-0.4-1.1-0.3-1.7c0.1-0.4,0.3-0.7,0.3-1.1c0-0.3-0.3-0.6-0.3-0.8c0-0.3,0.4-0.4,0.4-0.6
                    c0-0.2-0.2-0.6-0.3-0.8c-0.1-0.3-0.3-0.5-0.4-0.7c-0.1-0.4,0.4-0.8,0.5-1.2c-0.6,0.2-1,0.2-1.2-0.4c-0.2-0.5-1.9-0.8-2.5-0.7
                    c-0.7,0.1-1.2-0.6-1.7-1c-0.2-0.2-0.6-0.1-0.8-0.2c-0.3-0.1-0.5-0.4-0.8-0.5c-0.5-0.2-1.2,0.1-1.5-0.1c-0.4-0.3-1.3,0-1.9-0.1
                    c-0.8-0.2-0.5-1.4-0.5-2C1271.1,605.4,1270.5,604.7,1270.5,603.9"/>
                <path id="path3466" inkscape:connector-curvature="0" class="st4" d="M1311.4,609.6c0.1-0.1,0.3-0.2,0.4-0.2c0,0.2,0,0.4-0.1,0.6
                    C1311.6,609.8,1311.5,609.7,1311.4,609.6"/>
            </g>
        </a>

        <!--NAMIBIA-->
        <a class="na" xlink:href="http://wikipedia.org/" >

            <path id="na" inkscape:connector-curvature="0" class="st5" d="M130.7,480.3c2.9-0.4,5.2-2.6,8.2-2.1c2.6,0.4,5,2.1,7.8,1.7
                c5.8-1,9.7-6.8,16.3-5.2c5.2,1.2,8.3,6.5,13.4,8.3c4.5,1.6,12.2,0.1,17,0.1c16.1,0,32.1,0,48.2,0c6.3,0,12.6,0.2,18.9-0.2
                c5.8-0.4,7.2-0.2,10.4,3.9c4.1,5.4,9.2,4,15.5,5.1c5.8,1,11.9,1.7,17.8,1.1c2.9-0.3,4.8,1.2,7.4,2c3,0.9,6.1,0.5,9.1-0.2
                c3.3-0.7,3.7-0.4,6.6,0.7c2.4,0.9,6.2-0.6,8.6-1.1c14.7-2.6,29.3-5.8,44.1-8.2c2.9-0.5,5.8-1.6,8.7-1.2c1.8,0.2,4.4,1.7,6.2,0.9
                c5.6-2.4,9,3.4,12.7,5.6c-2.7-0.6-6.7,0-9.2,0.9c-3.2,1.1-4.1,5.2-7.1,2.7c-4.9-3.9-14.4,8.8-18,10.3c-1.7-2.9-3.6-9.4-8.6-9.8
                c-6.4-0.5-14.4,2.3-20.6,3.4c-7.3,1.4-14.8,1.9-22.1,3.1c-4.2,0.7-2.1,10.9-2.2,13.4c-0.4,15.5,0.4,31-0.6,46.5
                c-0.2,3.4,1.5,11.3-0.6,14.2s-11.5,1-14.9,0.8c-7.5-0.4-5.5,4.8-5.6,10c-0.1,7.6-0.1,15.3-0.2,22.9c-0.2,16.4-0.7,32.9-1.1,49.3
                c-0.5,15.4-1.2,30.8-1.2,46.2c0,5.5-5.9,3.4-9.2,6c-1.9,1.4-1.5,2.7-4,3.5c-2.2,0.6-3,1.6-1.3,3.3c-4.9,1.3-4.9-0.5-9.4-1.1
                c-4.8-0.6-9.3,2.2-14.3,0.7c-1.9-0.5-3.4-1.8-5.3-2.4c-1.4-0.4-2.7-0.3-3.9,0.3c-0.2-0.7-0.7-1.3-1.5-1.7c-4.1-2.3-3.5-3.2-4.3-7.3
                c-0.3-1.7-4.8-6.4-6.9-5.8c-4.5,1.4-2.8,7.1-5.5,8.3s-5.8,3.3-8.5,1.1c-4.1-3.4-8.3-7-11.4-11.1c-2.8-3.7-5-7.6-7.3-11.6
                c-1.2-2.1-1.3-4.3-1.7-6.6s-2.3-3.5-2.8-5.7c-1-3.9,1-5.3-2.3-8.9c-1.3-1.4-0.9-2.4-0.8-4.2c0.1-3-1.1-5.5-1.5-8.4
                c-0.3-2.1-0.1-4.1-0.7-6.1c-1-2.8,0.7-5.6,0-8.4c-1.1-4.9-3.8-9.4-5.8-14c-2.3-5.2-0.6-9.6-1.2-14.9c-0.4-3.6-1-8.1-0.6-9.9
                c0.2-0.9,2.7-9.6,1.6-9.3c-0.3-4.7-3-9.3-6-13c-1.7-2.1-3.7-4.1-5.1-6.4c-1.3-2.1-1.6-4.7-3.3-6.6c-8-8.8-9.7-19.4-15.6-29
                c-5.4-8.7-7.2-20.7-16.1-27.6C131,501.5,129.9,490.7,130.7,480.3"/>
        </a>    

        <!--SOUTH AFRICA-->    
        <a class="za" xlink:href="http://wikipedia.org/" >

            <path id="za" inkscape:connector-curvature="0" class="st6" d="M224.8,711.7c2-1.7,5.1-1.3,5.5-4c0.3-2.2,2.1-6.1,4.8-6.8
                c3.6-1,3.1,3.3,5.6,4c4.2,1-0.1,4.7,2,6.9c3.6,3.9,9.1,4.3,14.4,5.7c4.8,1.3,8.7-0.5,13.4-0.4c4.2,0.1,5.9,2.2,10.2,1.1
                c-2.6-2.6,0.6-3,2.4-3.6c2.4-0.8,2.6-3.5,5.7-4.3c2-0.5,6.1-0.7,6.3-3.1c0.5-4.7,0.6-9.4,0.7-14.1c0.2-19.8,1.8-39.6,1.2-59.4
                c2.3,2.8,6.3,4.2,8.5,7.1c2.5,3.4,3.8,7.9,5.4,11.6c1.6,3.8,3.2,7.8,1.1,11.7c-2.7,5-4.7,7.7-2,13.2c4.7-4.7,16.2,2.4,21.3-1.8
                c0.8-0.7,0.2-2.5,1.4-2.8c1.4-0.3,2.6-0.1,3.9-0.8c3.5-1.7,4.3-5.7,7.9-7.6c4-2.1,6.6-4.4,7.5-8.5c0.8-3.6,0.7-6.6,4.1-9.3
                c3-2.4,6.9-2.8,10.5-1.4c3,1.2,7.4,6.7,10.2,6.7c6.4-0.1,14,6.6,20.1,2.4c2.7-1.9,6.8,0.7,10.2-1.5c3.6-2.3,5-6.3,6.5-9.8
                c0.8-1.9,1.6-3.8,1.9-5.8c0.6-3.2-1.2-3,2.6-3.9c2.2-0.5,8.6-1.5,9.8-3.3c2.2-3.2,6.4-4.6,8.2-8c2-3.7,1.1-7.5,4-11
                c2.5-3,5.3-3.2,8.5-5.2c3.3-2,7.5-5.1,10-7.8c2.1-2.3,3.6-5.9,6.8-7.4c3.2-1.4,7-1.6,10.4-2.6c3.2-1,3.1-2.3,4.7-4.4
                c1.3-1.8,5-2.4,7.2-2.8c9.1-1.7,14.6,3.5,23.5,3.6c7.9,0,15-2.6,17.6,5.8c1.4,4.7,2.7,9.4,2.8,14.3c0.1,4.4,3.3,8.2,5.1,12.2
                c4,8.5,3.4,16.6,2.9,25.6c-0.2,3.5,0.1,8.3-1.8,11.3c-1.8,2.7,2.1,24.5,2.5,22.3c5.4,2.3,8.4,1.4,14.1,1.6c-2.3,9-5.2,16.7-8,25.5
                c-1.4,4.6-4.2,13.9-11.5,13.5c1.1,2.2-2.2,2.2-3.8,2.4c-1.9,0.3-3.6,2.5-4.8,3.7c-4.4,4.2-8.8,9.3-10.9,14.6c-1.1,3-4.2,4.9-6,7.6
                c-2.7,4.2-5.5,8.3-8.7,12.2c-5.7,7.1-11.8,11.8-19.4,17.3c-6.3,4.5-10.1,11.1-16.4,15.6c-8,5.7-15.9,11.7-24.2,17.1
                c-6.5,4.3-14,9.4-22.4,10.4c-4,0.5-8-1.4-12-0.4c-2.9,0.8-6.9,3.8-2.9,6c-4.7,1.8-10-3.4-14.4-0.8c-5.2,3.1-6.3,4.9-13.3,2.5
                c-5.3-1.8-12.1-3.6-17.7-1.8c-2.5,0.8-1.3,2.2-5.1,1.1c-2.2-0.7-6.1,0.5-7.3-1.7c-0.1,0.3-0.1,0.6,0,0.8c-5.7-0.8-15,1.5-17.9,6.1
                c-2.6,4.1-15.4-0.1-19.5,1.4c-2.5,0.9-5,0.3-7.3,1.3c-2.8,1.1-5.9,3.5-8.3,5.1c-3.1,2.1-1.9,1.7-5.4,0.9c-1.6-0.3-3.3,0.4-4.7-0.6
                c-1.6-1.1-3.1-2.5-5.1-3c3.6-4.2-7.4-4.4-9.8-4.8c1.5-3.3-0.1-6.3-4.6-5.5c-3.1,0.5-2,3.7-1.9,5.5c-5.6-1.9-1.2-7.7-0.6-10.6
                c0.5-2.6-1.1-5.2-2.6-7.3c-0.9-1.2-7.8-9.6-3.2-5.7c-2-1.7-1.1-3.6-4-3.6c-2.5,0,0.2-5.4,0.5-6.1c6.3,3.2,8-3.1,8.1-7.3
                c0.2-7.2-2.1-13.4-6.4-19.6c-6.4-9.2-12.1-18.4-15.8-28.8c-1.7-4.8-2.8-9.9-4.9-14.6C230.3,721.1,225.4,716.9,224.8,711.7"/>
        </a>

        <g id="nondestinations">
            <path id="bw" inkscape:connector-curvature="0" class="st1" d="M297.1,633.7c0-10.1,0.2-20.2,0.5-30.4c0.1-5,0.3-10.1,0.2-15.1
                c0-1.7-1.1-9,0.6-10.4c4.4-3.5,20.8,3.9,20.4-4c-0.6-10.2-0.1-20.4,0.1-30.6c0.2-10.1,0.6-20.1,0.7-30.2c0-2.8-0.3-5.6-0.2-8.3
                c0-3.3,1.8-3.2,5.3-3.2c9.7-0.1,19-2.3,28.6-4c3.1-0.5,9.9-3.1,12.9-1.6c4,2,5.2,6.4,7.1,9.7c3.7-1.5,6.5-5.1,9.8-7.2
                c1.7-1.1,3.1-2.7,5.2-3.2c2.3-0.6,2,1.1,3.7,1.3c2.2,0.3,4.5-2.7,6-3.7c0.8-0.5,8.5-1.6,9-1c0.4,0.4,0.7,3.3,0.9,3.8
                c1.4,3.1,3.4,6,5.7,8.7c2.3,2.6,3.4,5.9,5.8,8.4c2.5,2.6,1.4,3.9,2.4,7c2.2,6.3,7.9,11.2,14.2,14.7c6.7,3.7,13.3,3.2,11.3,12.1
                c6.3-1.1,10.8,0.6,8.7,6.7c-0.9,2.6-0.6,4.5,1.1,6.7c1.8,2.4,2,6.6,4.4,8.5c1.7,1.4,5.4,1,7.5,1.3c4.3,0.5,7.2,1.7,11.3,2.9
                c4.6,1.3,1.1,1.2,2.2,4.2c0.8,2.1,4.6,2.8,6.5,4.4c-5.7-0.6-6.7,1.7-9.4,5c-3,3.7-10.4,1.4-14.3,4.5c-3.6,2.9-6.1,9.8-11,11.1
                c-2,0.5-2,2.7-3.7,3.4c-3.3,1.1-6.5,2-8.4,4.7c-2.4,3.3-4,3.9-4.8,8.3c-0.9,5.3-4.4,6.5-7.8,10.6c-2.7,3.2-7.2,3.9-11.5,4.5
                c-3.1,0.4-1.6,1.6-2.2,4.2c-0.8,3.5-2.7,6.6-4,10c-1.9,4.9-5.9,6.8-11.8,6.3c-5.3-0.4-11,3.8-16-0.4c-1.8-1.5-2.9-2.2-5.5-2
                c-3.4,0.2-4.3-1.7-6.6-3.5c-4.1-3.1-11.1-5.9-15.1-1.3c-3.7,4.2-4.1,9.4-6.8,13.9c-1.3,2.3-3.9,3.1-6.2,4.4
                c-2.8,1.7-3.5,4.6-5.9,6.5c-1.8,1.5-3.2,0.7-5.2,1.4c-0.7,0.5-0.9,1.2-0.8,2c-0.8,1.9-3.1,1.8-5,1.7c-3-0.2-6.2,0.5-9.1,0.2
                c-3.1-0.3-5-1.9-7.6,0.7c-4-8.5,5.2-14.3,1.8-22.9c-1.6-4.1-3.3-8.9-5.8-12.7C303.8,638.4,299.6,636.7,297.1,633.7"/>
            <path id="ke" inkscape:connector-curvature="0" class="st1" d="M592,148.3c0-3.2-0.1-6.4,0-9.7c0.1-2.7,1.5-6.2,0.9-8.8
                c-1.2-4.5,1.4-10.5,4.8-14.3c3.1-3.5,5.4-10.4,10.3-12.1c2.4-0.8,2-1.2,1.8-3c-0.2-2.7,3.5-4.1,4.3-6.5c1-2.9,1.2-5.8,1.6-8.7
                c0.3-2.6-2.7-4.5-3.4-7.4c-1.4-6.6-6.1-8-6.8-10.9c-0.5-2.3-2-4.3-2.9-6.5c-0.6-1-0.9-2-1-3.1c0-1.5,1.9-2.3,1.4-3.9
                c-0.5-1.4-2.2-1.8-3.6-2.2c-3.1-1-0.8-3-4.1-2.7c1.1-2.6-2.7-5.2-2-7s2.8-3.3,4.3-4.6c5.1-4.6,11.3-3.3,17.9-3.3
                c3.8,0,7.6-0.3,11.4-0.3c1.9,0,3.8-0.1,5.7,0.2c1.6,0.2,2.1,2.7,4,3.3c5.9,2,12.5-0.4,18.6,2c6.3,2.6,13.1,7.2,18,11.4
                c2.5,2.1,4.5,3.6,8.1,4c2.4,0.2,7.7-1,9.6,0c5.2,2.9,13.1,0.3,17.6,4.1c0.6-2.7,4.9-6.6,6.8-8.9c3.4-4.1,10.7-5.7,15.7-7.8
                c5.4-2.2,6.3,2.9,10.3,5c2.7,1.4,5.7,0.5,8.6,0c2.3-0.4,5.1,1,7.2-0.1c-3.3,5-6.4,10.4-10.5,14.9c-4.3,4.8-8.1,7.5-8.1,13.9
                c0,15.2,0.2,30.5,0.2,45.7c0,11.4-2.6,22.2,6.2,31.6c3,3.2,7.5,7.2,4.3,11.4c-1.9,2.4-7.5,6.9-11.1,4.1c-0.3,0.6-0.5,1.2-0.8,1.9
                c-0.6-0.6-1.1-1.2-1.5-1.9c0.9,1.9,3.3,5.3,1.2,7.2c-0.4-4.6-2.6,0.7-3.1,1.7c-1.1,2.2-3.2,2.6-5.6,2.9c-5.3,0.7-7.5,4.7-5.8,8.6
                c0.8,1.8-3,7-4.5,8.1c-2.6,1.9-4.9,14.4-7.8,13.3c1.3,4.9-4.3,8.3-5.3,12.7c-2.3-1.4-2,1.1-3.9,0.7c-2.4-0.5-5.5-4-7.3-5.3
                c-6-4.4-12.4-8.3-18.3-12.8c-2.2-1.6-2.6-3.3-4.3-5c-1.5-1.4-4.6-1.2-1.8-3.8c3.9-3.8-2-8.2-5.6-10c-13-6.5-25.4-13.9-38.3-20.6
                c-6.4-3.3-13.1-6.7-19.1-10.6C602.7,152.8,596.8,147.6,592,148.3"/>
            <path id="cd" inkscape:connector-curvature="0" class="st2" d="M140.7,245.7c1.9-1.2,5.5-0.5,6.3-2.7c0.6-1.8,1.5-8.5,0.1-9.9
                c-3.8-3.8,10.2-9.4,13-11.5c0.7,2.7,5.3,3.1,5.5,6c1.5-1.3,3.4-2.1,5-3.2c2.2-1.5,1.3-4.4,3.2-6.1c3.3,3.8,8.2-3.4,12-1.8
                c3.7,1.6,0.3,2.3-0.3,4.3c-0.6,2.2,1,4.7,1,7c1.6-1.8,5.2,0.5,7.4-0.8c3.2-2,5.3-5.7,7.7-8.3c1.3-1.4,6.5-3.5,6.8-4.8
                c0.7-3.3,3.9-4,7-5.2c7.2-2.7,8.5-14.5,8.3-20.1c-0.1-4.3,0.3-8.2-0.3-12.5c-0.6-4.1,5.4-5.2,7.4-8.4c4.7-7.7,4.4-12.5,13.9-18.2
                c4-2.4,6.5-5.2,9.2-8.4c2.7-3.3,0.7-8,1.8-11.8c1-3.3,2.8-17.4,3-21.1c0.2-4.2,3-7.9,3.8-11.9c0.8-3.9-0.6-8.1,0.5-12
                c1.9-7.4,7.8-13.3,10.7-20.3c1.7-4.1,0-8.4-0.1-12.5c-0.1-1.9,1-3.9,0.6-5.8c-0.3-1.7-1.5-3.1-2-4.7c-0.8-2.5,4.3-2.5,5.5-4.8
                c1.6-3.2,3.3-6,6.1-8.6c2.7-2.5,6-4.6,10.1-4.6c3.5,0,4.9,2.6,7.1,3.1c5.2,1,9.9,5.8,11.9,9.9c1.6,3.4,7.1,0.9,10.3,1.7
                c1.7,0.4,2.5,2.4,4.5,2.4c1.7-0.1,2.1-0.3,3.9,0.5c2.7,1.2,3.2,0,5.9-0.2c1.8-0.1,3.7,0.7,5.3,1.2c2.9,0.9,6.9,2.8,10.1,1.8
                c5.7-1.7,3.9-13.6,11.6-13.9c4.3-0.2,5.5,7.4,11.1,2.8c2.4-2,18.9-3.9,17.9-8.6c3.4-0.1,4.6,3.9,7.8,3.7c3.9-0.3,10.7-0.9,12.3-4.5
                c0.6-1.4-1-2.7,1.1-3.6c2.5-1.1,4.6-0.4,6.6,1.2c3.2,2.7,6.1-0.5,9.6,1c1.7,0.7,3.2,1.8,4.9,2.6c2,0.9,3.4,0.1,5.5,0.4
                c5,0.6,6.9-4.1,12.2-1.6c2,1,8.9,4.8,8.9,7c0,1.1,1.6,3.8,2.9,4.2c5.2,1.8,10.1,8.4,15.6,3.9c3.1-2.6,5.4-3.1,9.6-1.3
                c4.3,1.8,7,1.4,8.5-3.2c1.5-4.7,11.6,8.6,12.2,9.4c2.7,3.9,14.1,5.1,10.9,11.2c2.5-0.5,5.5-0.6,6.2,2.1c0.3,0.7,0.7,1.4,1.3,2
                c0.4,1.4-2.1,3.8-2.4,5.3c-0.3,2,1.2,3.5,1.5,5.4c0.4,2.7-2.9,4.9-2.7,7.6c0.4,3.8,13.1,3.3,11.2,8.5c-2.4,6.2-10.9,12.3-16,16.9
                c-3.4,3-8.7,5.5-11,9.4c-1.5,2.4,0.8,5.2-1,7.7c-2,2.8-3.9,6.9-4.4,10.2c-0.4,2.9-0.3,5.9-0.6,8.8c-0.3,3.4-2.1,6.4-2.6,9.7
                c-0.3,2.4,1.8,5.7,0.5,7.9c-1.4,2.5-4.6,3.9-6.7,6c-3.2,3.1-2,5.3-2.1,8.9c-0.1,2.4-2.9,3.7-4.4,5.4c-3.3,3.8,0.9,7.7,3.1,11.4
                c1.7,2.8,3,3.5,2.5,6.8c-0.4,2.9,0.1,5.8-0.1,8.7c-0.5,6.6,4.9,11.7,3.6,18.6c-1.4,7.3,0.1,12.2,3.2,19.2c1.9,4.2-0.8,5.7-1.2,9.6
                c-0.4,3.3,0.4,7.5,2.5,10.2c4.4,5.6,11.7,7.8,14.1,14.7c2.4,6.8,6.6,13.1,8.7,19.9c-12.8,2.5-25.9,3.6-38.7,6
                c5.3,7.6-8.5,10.8-11,16.5c7.4,2,4.9,11.9,4.4,16.7c-0.4,3.5,1.2,6.9,0.9,10.3c-0.1,1.8-1.3,2.7-2.2,4.3c-1.2,2.3-1.3,4.9-2,7.3
                c-1.3,4.7-3.2,7.9,0.3,12.4c2.4,3.2,6.5,7,9.7,9.6c1.4,1.2,8.6,4.7,9.9,2.5c2.2-3.5,2.7-3.3,7.3-4.8c0,6.8-0.3,13.7-0.5,20.5
                c0,1.1,0.9,5.6-1.2,5.7c-2.4,0.2-2.9-2.2-1.3-3.3c-3.5-3.8-11.4,7.4-15.2,0.4c-1.2-2.4-1.8-4.8-3.6-6.9c-1-1.2-4.8-2.8-5.1-4.2
                c-0.6-2.8-0.9-6-4.9-6.1c-3.4-0.1-4.8-3.2-8.1-3.5c-2.7-0.3-4.4,1.1-6.3-1.5c-1.5-2-1.3-4.5-3.4-6.2c-3-2.4-5.6-10.7-8.2-3.3
                c-2.7,7.6-6.9,3.5-13.7,3.7c-4.6,0.1-5.9-1.2-9.8-2.8c-0.3-0.1-4.3-0.9-4.5-0.9c-6.2,0.9-8.3-6.9-6.1-10.6c-3.8,0.2-7.6,1-11.2,2.1
                c-4.4,1.3-5.5,2.4-10.2,1.5c2.2-1.8,2.8-4.8,0.4-6.7c-1.7-1.3-3.8,0.2-3.6-1.9c0.2-2.7-3.7-1.3-4.6-0.4c-2.1,2.1-4.4,1.2-7.1,0.6
                c-3.3-0.7-5.3,0.9-8.2,1.7c-2.8,0.7-5.2-0.7-7.9-0.2c-0.9,0.2-4.9-0.2-5-0.1c-2.3,1.1-3.5,4.2-6.7,4.1c0.7-2.1-0.7-3.7-1.1-5.7
                c-0.6-2.7,2.1-3,2.7-5.1c1.6-4.8-1.1-13.4-4.5-17.3c-4.1-4.7-5.9-7.7-5.4-13.8c0.5-6.3,3.4-13,1.5-19.3c-0.7-2.4-2.7-4.5-2.7-7.1
                c0-2.9,1.5-5.6,1.8-8.5c0.4-4.7-3.1-4.6-7.5-4.7c-4.2,0-8.4,0.3-12.6,0.5c-8.3,0.3-6.3-1.3-4.9-7.6c-1.9,0-4.2-0.6-6.1,0
                c-1.3,0.4,0,1.1-0.7,1.7c-2.3,1.7-12.7,0.2-15.8,0.2c1,2.2-1.5,4.8-1,7.2c0.4,1.9,1.1,5-2.5,4.3c1.2,2.9-0.9,5.9-0.2,8.8
                c-1.4,0-12.3,1.2-12.3-0.5c-0.1-2.7-6.5,0.3-8,0.4c-1.4,0.1-4.8-0.4-5.8,1c-0.7,0.9-0.2,1.1-1.9,1.4c-1.4,0.2-1.1-2-2.9-1
                c-1.4,0.7-4.5,1-6.1,0.7c-4.9-0.9-6.5-10.5-9-13.6c-0.9-1.1-2.2-1.9-3.1-3c-1.7-2-0.4-3.5-0.8-5.7c-0.6-3.9-4-6.7-4.5-10.8
                c-0.4-3-0.9-5.7-1.9-8.6c-1.3-3.7-3.5-3.8-7.8-3.9c-11.9-0.3-23.7,0.4-35.7,0.7c-9.6,0.3-20.9,0.5-30.3-1.1
                C151.4,245.8,145.1,255.6,140.7,245.7"/>

            <g id="ao" transform="matrix(4.8051744,0,0,4.8051744,-5600.1838,-2982.1779)">
                <path id="path3888" inkscape:connector-curvature="0" class="st1" d="M1192.6,720.6c-0.1-1.7,0.5-3.5,0.3-5.2
                    c0-0.3-0.3-0.5-0.1-0.8c0.2-0.4,0.7-0.6,0.9-1c0.2-0.3,0.2-0.7,0.2-1s0.5-0.7,0.4-1c-0.3-0.6,0.6-2.1,0.8-2.7
                    c0.2-0.9,0-1.9,0.6-2.7c0.4-0.5,0.1-1.6,0.6-2c0.5-0.3,1.2-1.1,1.5-1.6c0.4-0.7,0.2-1.8,1.5-1.9c0.9-0.1,1-0.7,1.4-1.4
                    c1.1-1.6,1.4-4.2,0.9-6c-0.2-0.8-0.6-1.4-1.1-2.1c-0.6-0.7-0.6-1.3-0.9-2.1c-0.1-0.3-0.5-0.6-0.6-1c-0.1-0.5,0-0.9-0.2-1.3
                    c-0.3-0.6-1-1.5,0-1.9c-0.3,0.2-0.5,0.4-0.4,0.7c0.2-0.4,0.5-0.7,0.8-1c0.3-0.2,0.7-0.2,0.8-0.6c0.1-1-0.1-1.8-0.6-2.7
                    c-0.6-0.9-0.9-1.9-1.4-2.9c-0.2-0.4-0.2-0.9-0.3-1.4c-0.2-0.7-0.9-1.1-1.3-1.7c-0.3-0.5-1.5-2.2-0.5-2.4c0.5-0.1,0.9-0.1,1.4-0.2
                    c0.7-0.1,1-0.6,1.7-0.6c3.3-0.3,6.7,0.1,10.1,0c1.3,0,2.6-0.1,3.8-0.1c1.2,0,0.9,0.7,1.5,1.4c0.2,0.3,0,1.1,0.1,1.5
                    c0.2,0.7,0.6,1.3,0.8,1.9c0.2,0.5-0.1,0.9,0.4,1.4s0.6,0.8,0.9,1.4c0.2,0.4,1.1,2,1.6,1.9c0.3-0.1,2.1,0,2.1,0
                    c-0.1-0.2,1.9-0.7,2.3-0.6c1,0.2,2,0.3,3.2,0.3c-0.1-0.6,0.3-1.2,0-1.8c0.6,0.1,0.7-0.4,0.6-0.8c-0.1-0.5,0.4-1.2,0.2-1.6
                    c1,0,2.1,0,3.1,0c0.3,0,0.1-0.3,0.4-0.4c0.4-0.1,0.8,0,1.2,0c-0.2,1-0.9,1.6,0.6,1.6c1.3,0,2.6-0.1,3.9,0c1.1,0,0.9,1,0.6,1.6
                    c-0.1,0.4-0.3,0.7-0.4,1.1c-0.1,0.6,0.5,1.2,0.7,1.8c0.3,1.3-0.3,2.6-0.4,3.9c-0.1,1.3,0.4,1.8,1.3,2.8c0.6,0.7,0.9,2.5,0.7,3.3
                    c-0.1,0.3-0.4,0.5-0.5,0.8c-0.2,0.5,0.4,1,0.2,1.6c0.5,0,1-0.6,1.4-0.8s1.5,0.1,1.9,0.2c0.7,0.2,1.6-0.5,2.4-0.5
                    c0.7,0,1.6,0.4,1.9-0.4c0.2,0.5,0.4,1.8,0.3,2.3c-0.1,0.3-0.2,0.5-0.3,0.7c-0.2,0.4,0.1,0.9,0,1.3c-0.3,0.8,0.4,1.5,0.1,2.3
                    c-0.2,0.8-0.9,1.4-0.1,2.2c-1.6,0.5-3.9,0.1-5.6,0.1c-0.9,0-1.7,0-2.6,0.1c-1,0.1-0.6,2.6-0.6,3.3c0,1.7,0.1,3.4,0,5.1
                    c0,1.6-0.3,3.2-0.1,4.8c0.3,1.6,1.2,2,2.3,3.2c1.1,1.2,2.3,2.5,3.8,3.3c-2.5,0.4-5.1,0.8-7.5,1.4c-1,0.2-1.4,0-2.3-0.1
                    c-0.4,0-0.8,0.1-1.2,0.2c-0.6,0.2-1.2-0.1-1.8-0.2c-2.1-0.5-4.4-0.3-6.5-0.6c-0.9-0.1-1.4-0.8-1.8-1.4c-0.4-0.6-1.7-0.3-2.3-0.3
                    c-5.3,0.3-10.7,0-16,0c-1.1,0-1.2-0.1-2.1-0.7c-0.9-0.6-1.7-1.4-3-1c-0.9,0.3-1.9,1.3-3,0.9C1194.1,720,1193.7,720.4,1192.6,720.6"
                    />
                <path id="path3890" inkscape:connector-curvature="0" class="st1" d="M1193.9,668.5c0.7-0.5,1.6-1.8,2.5-1.9
                    c0.4-0.1,0.4-0.7,0.9-0.7s0.9,0.7,1.2,1c-0.9,0.5-1.6,1-2.4,1.6c-0.4,0.3-0.3,0.3-0.1,0.7c0.2,0.5,0.1,1.1,0,1.6
                    c-0.1,0.7-1.6,1.3-1.6,0.4c0-0.5,0.3-0.6,0.1-1.2c-0.1-0.4-0.9-1.1-0.3-1.5C1194.2,668.5,1194,668.5,1193.9,668.5"/>
            </g>
            <path id="zm" inkscape:connector-curvature="0" class="st1" d="M341.3,458.2c0-19.3,0.5-38.6,0.8-57.9c0-2.1-1.2-6.4,2.1-7
                c2.9-0.6,6.5,0.2,9.4,0.2c9.9,0.2,20.4,1.7,30-1c-3.1-3-1.5-5.7-0.1-8.9c1.8-3.9-0.6-7-0.4-10.9c0.4-7.2,4-15.5,0.6-22.7
                c3.1,0,2.8,3,6.1,3.6c3.9,0.7,2.7,5.4,0.6,7.1c4.3,0.8,3.9,0.7,8.1-0.9c4.1-1.5,8.8-2.5,13.2-2.7c-1.6,2.7-0.8,7.7,1.7,9.9
                c2,1.7,5.2,0.7,7.6,1.6c3.5,1.4,6,2.7,10,2.8c6.5,0.1,12.6,3.8,14.9-3.4c2.5-7.8,5.2,0.9,8.3,3.3c2.1,1.6,1.8,4.2,3.4,6.2
                c2.5,3.1,4.2-0.2,6.4,1c3.3,1.7,6.2,2.6,9.5,4c3.7,1.6,2.7,5.8,5.5,8c4.1,3.3,4.8,6,7.1,10.2c2.9,5.3,11.4-5,14.6-1.5
                c-1.4,1-1.5,2.6,0.3,3.2c3.1,1.1,2.1-4.4,2.1-5.6c0.2-6.8,0.5-13.7,0.5-20.5c-1.4,0.5-3,0.6-4.4,1c-2.5,0.7-1.7,2.4-2.9,3.8
                c-3.6,3.9-9.9-2.8-11.9-4.8c-5.5-5.3-12.4-9.7-8.5-18.1c1.8-3.9,3-8.3,4.5-12.4c1-2.7-1-7.3-0.7-10.3c0.5-5,3.3-15.6-4.4-17.6
                c2.5-5.7,16.3-8.9,11-16.5c11.4-2.1,23.1-3.6,34.6-5.3c3.9-0.6,3.9-0.1,5.8,3c1.9,3.1,4.5,4.7,8.5,5c5.1,0.4,4.5,2,7.4,5.1
                c1.3,1.4,2.1,1,3.6,0.5c2-0.6,2.7,2.2,4.3,2.8c3.3,1.4,8.9,0.9,10.5,4.1c0.7,1.3,3,0.6,4.2,1c2.5,0.9,4.4,2.8,5.2,5
                c0.9,2.9,6.5,1.8,7.8,6c0.4,1.4-0.9,2.2-0.6,3.6c0.4,2,2.2,2.8,3.8,4c1.4,1.1,1.9,4.8,2.5,6.3c1.1,2.9-2.7,5.6-5.9,6.4
                c-3.4,0.9-1.5,3.2-0.6,5.5c1.3,3.6-1.1,5.5-1.2,8.9c-0.2,5-2.8,15.6,4.3,17.4c-2.9,2.7-11.8,4-11.8,8.6c0,3,1.5,4.2,0.2,7.4
                c-1.4,3.5-1.3,7-4.7,9.5c1.6,0-1.4,0.4-1.3,1.7c0,2.2,3.8,2.7,5.2,4.1c0.4,0.4,0.4,2.3,1.2,2.3c1.9,0.1,2.7-3.9,3.9-0.3
                c-14.3,5.1-29,10.4-43.7,14.4c-5.9,1.6-12.7,3.1-18.2,5.6c-5.1,2.4,9.4,12.7,0.3,13.6c-1.9,0.2-4.4,0.5-6.2-0.1
                c-3.6-1.2-7.8,0.7-11.2,1.7c-4.8,1.4-11,3.9-12.1,8.7c-0.4,2.1,0.2,4.3-0.9,6.3c-1.5,2.8-5.8,3.1-8.7,4.1c-5.1,1.7-12,5.4-14.8,9.5
                c-2.9,4.2-14.1,22.8-22.5,18.4c-1.8-1-3.8-1.9-5.9-2.4c-3-0.8-6,2.6-8.3,1.5c-1.9-0.9-2.6-3.2-4.9-3.6c-3.8-0.7-6,1.9-9.5-1
                c-5.3-4.3-9.4-4.7-16.4-5.7c-4.1-0.6-8.3,0.6-12.2,1.5c-1.9,0.4-5.6,2.1-7.4,1.1c-6.4-3.6-10.9-9.1-15.9-13.9
                c-2.7-2.6-5.9-4.9-8.7-7.5C343.2,463.8,343.5,460.8,341.3,458.2"/>


            <g id="tz" transform="matrix(4.8051744,0,0,4.8051744,-5600.1838,-2982.1779)">
                <path id="path4894" inkscape:connector-curvature="0" class="st1" d="M1311.2,672.8c0.2,0.9,0.3,1.2,1.1,1.8
                    c0.6,0.4,0.7-1.7-0.2-1.1c0.1-0.5,0-1.4-0.4-1.9C1311.6,672,1311.1,672.4,1311.2,672.8"/>
                <path id="path4896" inkscape:connector-curvature="0" class="st1" d="M1313,681.2c0.4-0.3,1.2-0.6,0.9-1.2
                    C1313.7,680.5,1312.9,680.5,1313,681.2"/>
                <path id="path4898" inkscape:connector-curvature="0" class="st1" d="M1313.3,668.5c0.1,0.4,0.5,0.8-0.1,0.9
                    c0.1,0.1,0.3,0.2,0.4,0.2c-0.8,0.4-0.1,1,0.3,0.4c0.4-0.8,0.3-1.6-0.6-1.9C1313.3,668.2,1313.3,668.3,1313.3,668.5"/>
                <path id="path5432" inkscape:connector-curvature="0" class="st1" d="M1268.8,668.5c-0.2-0.8,0.5-1.5,0.3-2.3c1,0,2-0.1,2.6-0.8
                    c0.5-0.5,1.3-1.2,1.9-1.8c0.4-0.4-0.4-0.8-0.3-1.1c0.2-0.4,1-0.1,0.9-0.5c-0.1-0.3,0.7-0.7,0.9-0.8c0.5-0.4-0.2-0.9,0.2-1.3
                    c-1.3,0.3-2.1-0.4-1.4-1.4c-0.7,0.1-0.2-0.4,0-0.7c0.3-0.5,1-0.3,1.3-0.7c0.5-0.9-0.2-2.7-0.7-3.6c-0.3-0.6-1.6-1.5-0.3-1.8
                    c1.3-0.3,2.7-0.2,4.1-0.2c1.8,0,3.7,0,5.5,0c1.6,0,3.3-0.2,4.9,0.1c1.4,0.2,2.7,1.2,3.9,1.9c1.6,0.9,3.2,1.7,4.8,2.6
                    c1.6,0.9,3.1,1.7,4.7,2.6c1.1,0.6,2.5,1,2.8,2.1c0.1,0.5-0.3,0.5-0.4,0.9c-0.1,0.3,0.5,0.7,0.7,0.9c0.7,0.9,2.1,1.5,3,2.2
                    c0.5,0.4,3.1,1.8,3,2.4c-0.2,1-0.6,2.2-1,3.2c-0.2,0.5-0.5,0.9-0.7,1.4c-0.1,0.2-0.1,0.5-0.2,0.7c0,0.3,0.3,0.6,0.3,0.9
                    c-0.3,1.3,2.1,1.4,1.8,2.7c1.3-0.4,1.1,1,0.6,1.5c-0.8,0.8-0.3,1.8-0.8,2.6c0.9-0.7,0.8,0.8,0.6,1.1c-0.3,0.5-0.5,1.2-0.5,1.8
                    c0.1,0.6,1,1.5,0.3,1.7c0.5,0.1,0.2,1,0.7,0.9c0.7-0.1,0.3,0.6,0.2,0.9c-0.3,0.5,0.4,0.7,0.6,1.2c0.1,0.3-0.2,0.4,0,0.7
                    c0.2,0.4,0.3,0.6-0.1,0.9c0.7-0.1,1,0.4,1.1,0.9c-0.1-0.8,1.4,0.7,1.9,0.4c0.1,1.4-2.5,2.4-3.7,2.9c-0.5,0.2-0.9,0.5-1.4,0.6
                    c-0.6,0.2-1.2,0.1-1.8,0.3c-0.6,0.2-1,0.7-1.6,0.9s-1.3-0.7-2-0.6c-0.9,0.2-0.9,1.3-1.7,1.6c-0.9,0.4-1.6,0.2-2.5-0.2
                    c-1.2-0.5-1.2,0.7-2.2,0.5c-0.8-0.2-1.3-0.2-2.1-0.7c-0.6-0.4-1.1-0.7-1.7-0.1c-0.5,0.4-2.3,0.4-2.9,0.1c-0.2-0.1-0.2-0.4-0.3-0.6
                    c-0.3-0.4-0.8-0.7-1-1.1c-0.4-0.6,0.1-1.3-0.1-2c-0.2-0.9-0.2-1.8-0.5-2.7s-1-1.6-1.7-2.3c-0.7-0.6-0.6,0.3-0.8,0.7
                    c-0.8-0.8-1.6-0.1-2.3-0.8c-0.2-0.2-1.1-0.3-1.5-0.5c-0.6-0.2-1.3-0.4-1.9-0.7c-0.1-0.1-0.2-0.2-0.3-0.3c-0.3-0.3-0.8-0.2-1.2-0.3
                    c-0.3-0.1-0.7-0.2-1-0.4c-0.3-0.1-0.4-0.5-0.7-0.6c-0.2-0.1-0.5,0-0.8-0.1c-0.4-0.1-0.4-0.5-0.7-0.7c-0.4-0.5-1.1-0.4-1.7-0.5
                    c-1.6-0.3-1.9-2.7-2.6-3.8c-0.8-1.4-0.8-3-2.4-3.9c-1.1-0.6-2.1-2.1-1.8-3.3c0.2-0.6,0.5-1.2,0.3-1.8
                    C1269.5,670.1,1269.1,669.3,1268.8,668.5"/>
            </g>

            <g id="gq" transform="matrix(4.8051744,0,0,4.8051744,-5600.1838,-2982.1779)">
                <path id="path5778" inkscape:connector-curvature="0" class="st1" d="M1179.5,633.6c0.3-0.3,1.7-2.6,0.5-2.4
                    c-0.5,0.1-0.7,0.3-0.8,0.7c-0.2,0.4-0.5,0.5-0.8,0.8C1178,633.2,1179.3,633.5,1179.5,633.6"/>
                <path id="path5784" inkscape:connector-curvature="0" class="st1" d="M1183.6,640.5c0.2,0,0.3,0,0.4-0.1c-0.9,0.4-0.1-0.8,0.1-1
                    c0.5-0.6,0-1.4,0.3-2.2c0.2,1.2,2.8,0.9,3.7,0.8c0.5,0,1-0.1,1.5-0.1c1.2,0,1.4-0.2,1.4,0.9c0,1.1,0,2.2,0,3.3c0,1-0.7,0.8-1.6,0.8
                    c-1.2,0-2.6-0.1-3.8,0c-0.3,0-1.7,0.3-1.1-0.3c-0.5-0.2-1.8,0.3-2.1-0.3C1182.1,641.8,1183.3,640.9,1183.6,640.5"/>
            </g>

            <path id="ls" inkscape:connector-curvature="0" class="st7" d="M434.5,733.4c2.6,2.2,2.4,5.4,4.5,7.7c1.8,2,1.2,4.6,3.1,6.3
                c2.4,2.1,8.6,9,12.8,6.1c1.8-1.3,3.3-5.5,4.6-7.4c2-2.9,5.4-2.3,8.7-3.1c2.4-0.6,7.5-2.3,8.5-4.5c1.3-2.8,1.4-4.4,3.7-6.8
                c0.9-0.9,3.6-3.4,3.1-4.8c-1.4-4.3-3.5-4.6-6.8-7.5c-2.6-2.3-5.3-4.5-7.8-6.9c-2.2-2-6,1.2-8,1.9c-2.2,0.8-3.3,1.7-5.4,2.8
                c-2.5,1.2-5.2,0.8-7.2,3c-2.2,2.4-3.3,5.4-5.2,8C440.8,731.1,437.6,731.5,434.5,733.4"/>
            <path id="bi" inkscape:connector-curvature="0" class="st1" d="M489.9,183.8c0.8-7.8,7.8,2.1,9.8,1.9c1.6-0.2,6.3-1.3,7.6-2.1
                c2.9-1.8,1.6-6,2-8.6c0.6,0.5,3.5,3.1,4.2,1.9c1.7-2.6,6.4-1.3,8.7,0c-1.4,1.7-4.9,5.4-1.2,5.1c-0.2,0.3-3.6,6.9-0.3,5.9
                c2.6-0.8,4.1,1.4,7,0.7c-2.7,2.5,0.9,3-3,6.6l-2.9,4.4c-0.7,0.6-3.5-0.1-4,0.9c-0.6,1.1,1.1,4.4,1.5,5.7c-1.5-0.1-3.3,2.7-3.9,3.6
                c-2.4,3.4-4.3,4.8-8.2,7.2c-1.9,1.2-7.3,3.3-9.3,1c-1.5-1.9-1.1-5.8-2.6-8.2c-2.4-3.9-2-10-1.5-14.3c0.3-2.2,1.1-4-0.3-6
                C492.4,187.6,490.6,186,489.9,183.8"/>
            <path id="cg" inkscape:connector-curvature="0" class="st1" d="M118.3,208.1c1.6-4.2,2.5-5.4,6.5-8c3.5-2.3,4.7,5.4,9.3,2.9
                c0.7-0.3-0.2-3.8,0.5-5.1c1.5-2.8-1.8-3.4-3.6-4.4c-1.7-0.9,3-10-4.3-8.2c2.6-3,1.8-6.7,0.8-10c3,0.6,4.2,0.3,7,0.4
                c1.3,0,1.9,1.7,3,1.4c3.5-0.7,9.8,0,9-4.6c-0.5-3.1-1.8-9.8,5.2-6.6c2.5,1.2,7,7.7,5.4,10.2c3.2-1.6,6.3,1.9,9.6,1.2
                c2.8-0.6,5.5-4.6,6.3-6.8c0.9,1.4,2.4,9.1,4.4,8.9c1.5-0.1,5.3-3.4,5.1-4.9c-0.3-1.5,0.1-6.6,1.9-7.4c2.3-1.2,4.5-4.9,1.6-6.6
                c4-1.2,2-7.8,1.2-10.2c-1.3-3.7,3.1-7.7,1-10.9c-1.2-1.9-4.3-2.5-6.5-2.5c-1.2-0.8-0.1-3.5-2.7-3.7c-6.8-0.6-1.5-3.7-2.3-7.3
                c-0.6-2.5,0.4-7.4,3.1-9.1c2.8-1.8,5.2-0.9,7-4.2c1.4-2.6-0.8-4.5-1.9-6.7c-1.9-4-2.5-7.7-8.7-7c-5.2,0.6-9.9,3.2-15,4
                c1.5-3.4-0.2-7-0.5-10.4s3-5.4,3-8.1c0-1.5,20.4-0.5,22.2-0.7c3.5-0.3,4.7,0.5,8.1,0.7c2.8,0.2,3.2,3.5,7,2.6
                c7.4-1.8,15.1,2.8,20.2,7.1c2.4-3,0-5.1,0.2-8.3c0.1-2.6,3.1-4.1,4.1-6.4c1.5-3.2,3.4-6.2,4.2-9.6c0.7-2.7-0.4-5.2,0.3-7.8
                c0.5-2,1.1-4.9,3.4-6c2.9-1.4,6.6,0,9.7-1.2c3.4-1.3,6-3.3,9.8-1.7c3.7,1.5,6.2,2.8,10.4,2.2c5.1-0.7,10.4-2.1,11.1,4
                c0.6,5.3-4.5,13-7.4,17.5c-3.5,5.4-4.4,8.6-4.5,14.8c0,3.5-0.2,7-1.4,10.3c-1.3,3.6-3.4,5.6-2.4,9.6c0.6,2.5-0.2,5-0.4,7.7
                c-0.2,2.6-0.6,4.8-1.4,7.3c-2.2,6.4,0.5,12.5-5.3,17.9c-5.1,4.7-10.7,6-14.4,12.1c-1.7,2.8-3.1,6.1-4.9,8.9c-1.9,3-6.9,5.5-7.6,8.9
                c-1.2,6-0.2,12.3-0.5,18.4c-0.3,5.3-4.2,14.7-10,17c-2.3,0.9-5,2.1-5.8,4.4c-0.4,1.2-5,2.8-6.4,4.1c-2.5,2.4-4.2,5.1-6.4,7.6
                c-3,3.4-6.7-0.3-8.7,2c0-2.2-1.8-6-0.1-7.8c1.4-1.4,1.5-3.1-1.2-3.7c-3.6-0.7-8.4,5.5-11.4,2c-1.5,1.4-1.3,3.1-2,4.8
                c-1.1,2.2-4.4,3-6.2,4.6c-0.2-2.8-4.7-3.2-5.5-6c-3.1,2.9-4.9-7.4-9-1.8c-1.4,2-3.8,1.6-5.7,2.9c-2,1.3-5.2,3.9-6.7,5.7
                c-3.5,4.7-5.6-3.2-6.3-5.4C130.5,217.2,123.3,212.1,118.3,208.1"/>
            <path id="rw" inkscape:connector-curvature="0" class="st1" d="M487,178.8c-1.4-2.6,6-7,6-10.4c-0.1-6,3-8.6,8.9-11.6
                c0.7-0.4,4.3-2.3,5.2-1.7c1.3,0.8,1.7,3.8,3.7,1.8c1.6-1.5,6.8-8.2,9.7-7.3c-1.3,3.5,2.1,7.8,3.9,10.4c2.3,3.2,4.6,8.7,4,12.4
                c-0.8,4.6-3.8,5.2-8.3,3.7c-5.1-1.7-6.3,2.3-10.7-1c-0.6,4.2-0.2,8.7-6,9.8c-3,0.5-5.7,0.9-7.2-1.7c-1.6-2.8-5.8-2.6-6.2,0.8
                C488,182.4,487.2,181,487,178.8"/>

            <g id="ga" transform="matrix(4.8051744,0,0,4.8051744,-5600.1838,-2982.1779)">
                <path id="path5980" inkscape:connector-curvature="0" class="st1" d="M1180.7,650.2c0.1,0.1,0.1,0.2,0.2,0.3
                    c0.2-0.2,0.1-0.4-0.1-0.6C1180.7,650,1180.7,650.1,1180.7,650.2"/>
                <path id="path6014" inkscape:connector-curvature="0" class="st1" d="M1180.1,651c-0.3-0.3-0.5-0.7-0.2-1.1c0,0.3,0.1,0.5,0.4,0.7
                    c0.1-0.8,0.6-0.1,0.6,0.3c0.1-1,1.2-1.5,1.4-2.5c0.1-0.7-0.4-2,0.3-2.5c0,0.3,0.3,0.6,0.5,0.8c0.1-0.5,1-0.2,1.3,0.2
                    c-0.1-0.5,0.5-0.6,0.9-0.6c-1,0-1.8-0.2-2.4-1c-0.2-0.3-1-0.7-0.2-0.9c0.4-0.1,0.8,0.1,0.9,0.5c0.3-0.6-0.2-1.4,0-2
                    c0.1-0.3,0.5-0.3,0.8-0.1c0.5,0.2,1.2,0.1,1.7,0.1c0.7,0,4.8,0.4,5.1-0.2c0.4-0.9-0.2-2.5-0.2-3.4c0-1.4,0.2-2,1.8-1.9
                    c0.9,0.1,1.7,0.1,2.6,0.1c0.8,0,1.6,0.3,2.4,0.2c1.3-0.1,2.3-0.2,1.4,1.1c-0.7,1.1,0.3,2.2-0.1,3.2c1-0.1,1.9-0.6,2.8-0.8
                    c1.5-0.3,1.6,0.4,2.1,1.4s0.7,1.8-0.8,2.1c-0.9,0.2-1,1.6-0.9,2.2c0,0.3-0.8,1.3,0,1.2c0.2,0,1,0.4,1,0.6c0,0.3,0.9,0.3,1.1,0.5
                    c0.9,0.6-0.4,1.6-0.1,2.3c0.2,0.5,0.7,2-0.2,2.3c0.6,0.4,0.2,1.3-0.4,1.5c-0.2,0.1-0.5,1.3-0.4,1.3c0.4,0.4-0.5,1.1-0.9,1.1
                    c-0.5,0-0.7-1.5-0.9-1.8c-0.2,0.5-0.8,1.4-1.4,1.4c-0.6,0.1-1.3-0.6-1.8-0.3c0.8-1.1-2.6-3.5-2.3-1.3c0.1,1.3-0.2,1.2-1.6,1.5
                    c-0.5,0.1-0.4-0.4-0.8-0.3c-0.6,0.2-0.9,0.1-1.5-0.1c0.2,0.7,0.4,1.5-0.2,2.1c0.5-0.1,0.7,0.4,1,0.6c0.3,0.3-0.4,0.5-0.3,0.9
                    c0.1,0.3,0.6,0.3,0.8,0.5c0.4,0.4-0.1,0.7-0.1,1.1c0,0.3,0.5,0.6-0.2,0.7c-0.7,0-0.8-0.6-1.3-0.8c-0.8-0.3-1.5,1.5-1.7,1.8
                    c-0.9-0.6-1.8-2-2.4-2.8c-1-1.3-2.4-2.3-3.6-3.3c0.7-0.4,0.9,1,1.6,0.3c-0.5,0-1.1-0.5-1.6-0.6c-0.8-0.2-1.4-1.8-1.9-2.3
                    c0.5,0,0.7,0.5,1.2,0.6c-0.4-0.6-0.5-0.5-1.1-0.8c-0.3-0.1-0.2-0.6-0.3-0.8c-0.2-0.5-0.6-1-0.9-1.4c0.4,0.3,1.2,0.9,1.1,1.4
                    c0.4-0.1,0.8-0.2,1.3-0.2c-0.2-0.2-0.4-0.3-0.6-0.6c-0.1,0.3-0.3,0.4-0.7,0.3c0.1-0.4,0.4-0.7,0.2-1.1
                    C1181.6,654.3,1180.4,651.2,1180.1,651"/>
            </g>

            <path id="mw" inkscape:connector-curvature="0" class="st1" d="M563,407.7c1.3-2.9,9.3-13.5,5.8-18.4c-2.5-3.5,9.5-6.6,11.6-8.6
                c-7.6-2-3.8-12.6-4.5-17.8c-0.5-4,3-5.7,0.5-9.8c-2.9-4.7,1.7-3,4.2-5.2c3.8-3.4,4.7-10.1-1-12.8c-4-1.9-0.1-5.7-3-8.7
                c-3-3.1-7.5-1.1-7-6.4c1.9,0,6.8,1.8,8.6,2.7c3.7,1.9,8.7,0.7,11.6,3.4c2.2-3.3,1.3-6.4,5.8-2c3.3,3.3,7.4,8.3,7.7,12.8
                c0.2,2.8-1.2,5.4,0.9,8c2,2.5-1,4.7-1,7.2c-0.1,5.1,7.7,7.1,7.4,12.1c-1.8,0-4.4-0.6-5.9,0.4c-1.8,1.1-2.3,5.3-3.6,7
                c-4.1,5.4-2.8,8.9-0.9,14.9c0.8,2.4,1.1,5,1.3,7.5c0.2,2.3-1.5,6.4,1.1,8c5.1,3.1,8.8,4.4,12.5,9.3c2.9,3.8,6.3,7.4,9.2,11.2
                c3.5,4.5,3.5,8.2,2.1,13.5c-1.2,4.7,0.7,9.8-0.2,14.6c-0.4,2.1-1.1,4.6-3.2,5.9c-2.3,1.5-5.6,0.4-7.8,2s-1.7,4.1-3,6
                c-2,0.9-2,1.9-0.3,3c1.1,1.6,2,3.4,2.1,5.3c0.1,0.9,0.3,4-1,4.7c-0.9,0.5-4.4,0.7-4.2-0.7c0.4-4.4,3.1-3.4-1.4-6.8
                c-2.9-2.2-11.6-8.8-11.4-12.4c0.2-2.1-1.2-2.5-1.9-4.3c-1.3-3.6,1.2-3.1,2.5-6.1c0.7-1.7-0.4-3,1.1-4.7c2.3-2.7,2.3-3.4,2.3-6.8
                c0-3.9,1.4-10.5-3.1-13.2c-2.5-1.5-5.5-0.1-7.9,0.8c-2.5,0.9-6.5-0.2-6.6,2c-1.6-1.5-11.9-11.9-12.5-11.7
                C567.3,414.8,562.5,408.7,563,407.7L563,407.7L563,407.7z"/>
            <path id="zw" inkscape:connector-curvature="0" class="st1" d="M407.5,491.7c2.6,0.5,5.2,1,7.9,0.2c2.6-0.8,3.8,2.5,5.5,3.4
                c1.8,1,4.4-1.2,6.1-1.5c2.3-0.3,5.2,1.7,7.1,2.5c5.7,2.1,10.2-2.5,13.3-6.1c4.1-4.8,8.2-8.2,11.1-13.6c1.2-2.2,3-3.1,5.5-3.9
                c3.5-1.1,6.1-3.4,9.5-4.8c6.5-2.8,7.9-3.1,8.3-9.7c0.2-3.2,6.4-7.2,9.8-8.4c3.2-1.1,7-2.6,10.4-2.7c4.1-0.1,8.3,1,12.4,0.1
                c0,6.8-0.7,7.4,8,7.4c5.4,0,9.1,0.7,14,3.3c3,1.6,5.9,2.3,8.5,4.5c2.4,2.1,6,1,9,1.8c1.9,0.5,6.7,1.3,7.1,3.4
                c0.5,2.7,3.2,2.1,5.6,1.5c-0.6,3.1-2.7,4.9-1,8.2c2,3.8-0.5,6.6,0.9,10.2c1.3,3.5-1.7,7.3-0.8,11.1c0.6,2.6,2.4,4.8-0.3,6.8
                c-1.9,1.5-0.2,5.1-1.3,5.6c-2.8,1.4-3.5,1.2-4.6,4.2c-0.5,1.4,2.1,1.8,2.9,2.4c0.7,0.5,0.1,2.5,0,3.1c-0.3,1.4-1.6,2.1-2,3.4
                c-0.3,1,1.4,4.7,1.8,5.8c0.7-0.2,1.3-0.5,2-0.7c-0.2,3.7,1.5,5.2-1.1,8.9c-2.1,3-3.4,8.1-7.3,9.6c-4.2,1.7-1,4.1-1.8,6.9
                c-1,3.5-4.1,5.5-1,9c-3.2-2.1-18.5,16.3-20.7,18.3c-2,1.9-3.5,4.3-6.6,2.6c-4.2-2.2-9.8-1.1-14.4-1.1c-4,0-7.5-1.1-11.2-2.2
                c-2.2-0.7-10.9,0-11.8-0.8c-2.3-2.1-2.4-1.3-5-2.5c-2.9-1.3,0-3.6-0.9-4.6c-4.1-4.6-19.3-1.7-21.6-6.5c-2.2-4.7-5.9-8.8-4.7-14
                c1.5-6.7-1.1-8-8.6-6.7c1.3-6.1-0.5-8.6-7.1-10.3c-5.2-1.3-12.1-6.4-15-10.3c-4.4-6-4.5-13.5-9.8-19.3
                C413,504,405.6,495.1,407.5,491.7"/>



            <path id="sz" inkscape:connector-curvature="0" class="st7" d="M513.6,673.5h0.5c2.6,2.2,2.3,1.8,4.4,4.1c1.8,2,2,2.9,3.9,4.5
                c2.4,2.1,7.7,4.9,11.8,2c1.8-1.3,1-1.3,2.1-3.3l2.5-4.2h3.5l-0.1-1.2c-4.2-14.6,1-4.7-3-14.2c-2.2-2-5-4.3-7-5l-6.5-0.2
                c-2.2,2.4-3.9,2.7-5.8,5.3c-1.1,1.5-1.5,2.6-2.1,3.6C517.2,666,515.1,672.5,513.6,673.5L513.6,673.5L513.6,673.5z"/>

            <g id="km" transform="matrix(4.8051744,0,0,4.8051744,-5456.5008,-2765.5874)">
                <g id="km-" transform="translate(-29.90172,-45.07447)">
                    <path id="path5750" inkscape:connector-curvature="0" class="st1" d="M1328.9,698c0.3-0.2,0.1-0.6,0-0.8c-0.3-0.6-0.1-1.1-0.3-1.6
                        c-0.8,0-0.4,0.9-0.6,1.3C1327.8,697.4,1328.6,697.6,1328.9,698"/>
                    <path id="path5752" inkscape:connector-curvature="0" class="st1" d="M1330.6,699.9c-0.1-0.3-0.5-0.6-0.9-0.5
                        C1329.6,699.8,1330.2,699.8,1330.6,699.9"/>
                    <path id="path5754" inkscape:connector-curvature="0" class="st1" d="M1333.4,699.8c0.5-1.1-0.5-0.7-1.2-0.9
                        C1332.6,699.3,1333.1,699.5,1333.4,699.8"/>
                </g>
                <path id="km." inkscape:connector-curvature="0" class="st9" d="M1300.6,655.8c4.4,0,4.4-5.9,0-5.9
                    C1296.3,649.9,1296.3,655.8,1300.6,655.8"/>
            </g>

            <g id="st" transform="matrix(4.8051744,0,0,4.8051744,-5456.5008,-2765.5874)">
                <g id="st-" transform="translate(-29.90172,-45.07447)">
                    <path id="path2898" inkscape:connector-curvature="0" class="st1" d="M1170.1,647.1c0.4-0.2,0.8-0.5,0.9-0.8
                        c0.1-0.2,0-0.9-0.4-0.7C1169.7,645.8,1170,646.5,1170.1,647.1"/>
                    <path id="path5384" inkscape:connector-curvature="0" class="st1" d="M1173.9,640.7c0.2-0.2,0.2-0.5,0-0.7
                        C1173.6,640.2,1173.6,640.5,1173.9,640.7"/>
                </g>
                <path id="st." inkscape:connector-curvature="0" class="st9" d="M1141.7,601.2c4.4,0,4.4-5.9,0-5.9
                    C1137.3,595.3,1137.3,601.2,1141.7,601.2"/>
            </g>

            <g id="yt" transform="matrix(4.8051744,0,0,4.8051744,-5456.5008,-2765.5874)">
                <path id="yt-" inkscape:connector-curvature="0" class="st1" d="M1306.1,657.4c0.3-0.3,0.6-1,0-1.2
                    C1305.9,656.5,1305.8,657.1,1306.1,657.4"/>
                <path id="yt." inkscape:connector-curvature="0" class="st9" d="M1306.7,660.4c4.4,0,4.4-5.9,0-5.9
                    C1302.4,654.5,1302.4,660.4,1306.7,660.4"/>
            </g>

        </g>

        <g id="lakes" transform="matrix(4.8051744,0,0,4.8051744,-5594.47,-2467.6289)">
            <path id="path7100" inkscape:connector-curvature="0" class="st8" d="M1266.9,557.7c0.1-0.1,0.1-0.2,0.2-0.4
                c0.4,1.1-0.7,2.2-0.7,3.4s0.7,1.9,1.1,3c0.4,1-1.1,1.3-0.6,2.1c0.6,0.9,0.9,1.8,1.3,2.8c0.4,0.9,1.2,1.5,2.1,2
                c0.9,0.6,0.7,1.5,1,2.3c0.2,0.8,1.6,1.3,1.3,2.2c-0.1,0.2-0.3,0.5-0.5,0.7c-0.4,0.7,0.8,0,0.2,0.8c0.5-0.5,1.3-0.1,1.6,0.4
                c0.4,0.5,1.3,0.5,1.2-0.3c-0.1-0.7-0.7-1.1-1-1.8c-0.4-0.8-0.8-1.6-1.2-2.5c-0.7-1.5-0.3-3.1-1.6-4.4c-0.2-0.2-0.5-0.4-0.8-0.6
                c-0.4-0.1-0.4,0.2-0.8,0c-1.1-0.6-1-1.4-0.2-2.1c0.6-0.5,0.2-1.1-0.1-1.7c-0.1-0.3-0.3-0.4-0.3-0.8c0-0.5,0.4-0.9,0.2-1.4
                c-0.3-0.5-0.9-0.7-0.8-1.4c0.3-1.1,0-1.4-0.5-2.4c-0.3-0.7-0.8-1.5-0.7-2.3c0-0.2-0.2-2-0.8-1.1c-0.6,1,0.5,3.2-0.5,4
                C1266.8,558.7,1266.9,558,1266.9,557.7"/>
            <path id="path7098" inkscape:connector-curvature="0" class="st8" d="M1291.3,541.3c-0.4-0.7-1.2-0.8-1.7-0.1
                c-0.6,0.7-0.9,0.2-1.5-0.3c-0.2-0.2-0.5-1.5-0.5-1.5c-0.6,0-1.2,0.3-1.1-0.5c-0.2,0-0.5,0.3-0.7,0.4c-0.4,0.2-1.1-0.3-0.2-0.2
                c-0.1-0.4-0.7-0.5-0.5-0.9c-0.3,0.1-0.5,0.2-0.8,0.3c0.1,0.1,0.2,0.2,0.2,0.3c-0.7,0.1-0.1,0.6-0.9,0.5c0.3,0.8-1.2,0.5-1.7,0.5
                c0-0.2,0-0.5,0-0.7c-0.4,0.4-0.4,1.2-1.3,0.8c0.1,0.5-0.7,0.2-1,0.5c-0.2,0.2-0.7,0.2-0.8,0.4c-0.1,0.1,0.3,0.6,0.2,0.9
                c-0.2,0.5-0.7,0.8-1,1.4c-0.4,0.9,0.5,1.4,0.4,2.4c0,0.3-0.1,0.8-0.4,1.1s0.1,0.4-0.1,0.6c-0.2,0.3-0.3,0.7-0.3,1
                c-0.1,0.1-0.1,0.2-0.2,0.4c0.1,0.1,0.2,0.3,0.3,0.5c-0.1,0.7-0.4,1,0.2,1.5c0.5,0.4,0,1.3,0.3,1.8c0-0.5,0.6-0.7,0.9-0.2
                c-0.2-0.4-0.2-1.3,0.6-1c-0.6-0.5,0.1-0.9,0.6-1.2c0,0.6,1.2,1.4,1.6,0.6c0.2,0.5,0.7,0.3,0.7,0.9c0,0.4,0.4,1-0.5,1
                c0.1,0.2,0.2,0.3,0.4,0.4c0-0.5,0.5-0.5,0.9-0.4c-0.7-0.1-0.9-1.3-0.6-1.7c0.4-0.5,1.9,0,2.3,0.4c0-0.7,1.4-1,1.7-1.5
                c0.3-0.4-0.4-0.4-0.7-0.3c-0.5,0.3-1.4,0-2-0.2c0.4-0.6,0.9-0.2,1.6-0.4c-0.3-0.4-0.8-0.4-1.2-0.3c0.1-0.5,0.4-0.3,0.7-0.4
                c0.2-0.1,0.9-0.2,0.9-0.5c0-0.2-0.1-0.3,0.3-0.4c-0.2-0.1-0.5-0.5-0.2-0.7c0.4-0.2,0.8,0.3,1.2,0.2c-0.4-0.1-0.5-0.5-0.3-0.8
                c0.1,0.1,0.3,0.2,0.4,0.3c-1-0.6,0.4-1.3,0.6-1.9c0.2-0.5-0.4-0.9-0.3-1.4c0.2-0.7,1.1-0.6,1.7-0.4c0.1-0.2,0.1-0.5,0-0.7
                c0.3-0.1,1.4-0.3,1.7-0.2C1291.4,541.3,1291.4,541.3,1291.3,541.3"/>
            <path id="path6020" inkscape:connector-curvature="0" class="st8" d="M1291.2,598.5c0.6,0.4,1.5,2.4,0.9,2.9
                c-0.5-0.6-1.1-1.2-1.6-1.7c0.2,1-1.2,1.5-1.3,0.2c0-0.5,0.2-0.9,0.3-1.3c0.1-0.7-0.5-0.5-0.8-0.8c-0.7-0.7-0.2-2.1-0.4-3
                c-0.2-0.8-0.5-1.6-1.1-2.2c-0.5-0.5,0.2-1.4,0.5-1.8c0.5-0.8,0.8-1.2,0.6-2.1c-0.2-1-0.1-1.9-0.3-2.9c-0.1-0.5,0.5-0.9,0.2-1.4
                c-0.2-0.5-0.9-0.8-1.1-1.3c-0.1-0.3-0.7-2.4,0.2-2.3c1.1,0,2.1,2.1,2.3,2.8c0.1,0.5,0,1,0,1.6c0,0.5,0.4,0.8,0.2,1.3
                c-0.3,1.3,0.7,1.6,1.2,2.7c0.2,0.6,0.2,1.9-0.5,2.4c-1.4,1-0.1,1.7-0.2,2.8c0,0.5-0.3,0.7-0.2,1.2c0.1,0.5,0.1,0.9,0.2,1.4
                C1290.7,597.2,1290.3,598.8,1291.2,598.5"/>
        </g>
        
        <g id="destHovers">
            <g id="zaHover">
                <path class="st10" d="M724.4,701.5H374.8c-1.7,0-3-1.3-3-3v-75.9c0-1.7,1.3-3,3-3h349.6c1.7,0,3,1.3,3,3v75.9
                    C727.4,700.1,726,701.5,724.4,701.5z"/>
                <path class="st10" d="M371.8,729.2l55.8-55.8h-55.8V729.2z"/>
                <g class="st11">
                    <path class="st12" d="M421.1,684.2c-3.6,0-6.3-1.1-8.2-3.3c-1.9-2.2-2.9-5.3-3.2-9.1l5.3-1.4c0.4,6.1,2.4,9.2,6.1,9.2
                        c1.5,0,2.7-0.4,3.5-1.3c0.8-0.9,1.2-2.1,1.2-3.8c0-0.9-0.1-1.7-0.3-2.5c-0.2-0.8-0.6-1.5-1.1-2.2c-0.5-0.7-1-1.3-1.4-1.7
                        c-0.4-0.5-1.1-1.1-1.9-1.8l-7.2-6.4c-1.4-1.3-2.5-2.7-3.2-4.1c-0.7-1.5-1-3.2-1-5.3c0-3.1,0.9-5.5,2.7-7.2
                        c1.8-1.7,4.3-2.6,7.4-2.6c3.4-0.1,6,0.8,7.7,2.6s2.7,4.6,3.1,8.4l-5,1.4c-0.1-0.9-0.2-1.8-0.3-2.5c-0.1-0.7-0.3-1.5-0.6-2.2
                        s-0.6-1.3-1-1.8c-0.4-0.5-0.9-0.8-1.6-1.1c-0.7-0.3-1.4-0.4-2.3-0.3c-3.2,0.2-4.7,1.8-4.7,4.7c0,1.3,0.2,2.3,0.6,3.2
                        c0.4,0.8,1.2,1.7,2.2,2.7l7.2,6.4c1.9,1.7,3.4,3.5,4.5,5.4c1.1,1.9,1.7,4.1,1.7,6.6c0,3.1-0.9,5.6-2.8,7.5
                        C426.6,683.3,424.2,684.2,421.1,684.2z"/>
                    <path class="st12" d="M447,684.2c-2.1,0-4-0.3-5.5-1c-1.5-0.6-2.7-1.6-3.6-2.8c-0.9-1.2-1.6-2.7-2-4.3c-0.4-1.7-0.6-3.6-0.6-5.8
                        v-16.2c0-4.5,0.9-7.8,2.7-10.1c1.8-2.3,4.8-3.5,9-3.5c4.2,0,7.1,1.2,9,3.5c1.8,2.3,2.7,5.7,2.7,10.1v16.3c0,4.5-0.9,7.9-2.8,10.3
                        C454.1,683,451.1,684.2,447,684.2z M444.1,679c0.8,0.4,1.7,0.5,2.9,0.5c1.2,0,2.1-0.2,2.9-0.5c0.8-0.4,1.3-0.9,1.7-1.7
                        c0.4-0.7,0.7-1.6,0.8-2.4c0.1-0.9,0.2-2,0.2-3.3v-18.8c0-1.3-0.1-2.4-0.2-3.2c-0.1-0.9-0.4-1.7-0.8-2.4c-0.4-0.7-1-1.3-1.7-1.6
                        c-0.8-0.3-1.7-0.5-2.9-0.5c-1.2,0-2.1,0.2-2.9,0.5s-1.3,0.9-1.7,1.6c-0.4,0.7-0.7,1.5-0.8,2.4c-0.1,0.9-0.2,1.9-0.2,3.2v18.8
                        c0,1.3,0.1,2.4,0.2,3.3c0.1,0.9,0.4,1.7,0.8,2.4C442.7,678.1,443.3,678.6,444.1,679z"/>
                    <path class="st12" d="M480.4,683.5c-1.3,0.5-2.9,0.7-4.8,0.7c-1.8,0-3.4-0.2-4.8-0.7s-2.5-1.1-3.3-1.9c-0.8-0.8-1.5-1.9-2-3.2
                        s-0.9-2.6-1-4.1s-0.3-3.1-0.3-5v-28.4h5.7v28.7c0,1.2,0,2.3,0.1,3.2c0.1,0.9,0.2,1.8,0.5,2.7s0.6,1.6,1,2.2c0.4,0.6,1,1,1.7,1.4
                        c0.7,0.4,1.6,0.5,2.5,0.5c1,0,1.8-0.2,2.5-0.5c0.7-0.4,1.2-0.8,1.7-1.4c0.4-0.6,0.7-1.3,1-2.2s0.4-1.8,0.5-2.7
                        c0.1-0.9,0.1-2,0.1-3.2v-28.7h5.7v28.4c0,1.9-0.1,3.6-0.3,5c-0.2,1.4-0.5,2.8-1,4.1s-1.2,2.3-2,3.2
                        C482.8,682.4,481.7,683,480.4,683.5z"/>
                    <path class="st12" d="M497.7,683.7v-38.4h-7.8v-4.4h21.3v4.4h-7.5v38.4H497.7z"/>
                    <path class="st12" d="M514.5,683.7v-42.8h6v18.5h11v-18.5h6v42.8h-6v-20.1h-11v20.1H514.5z"/>
                    <path class="st12" d="M553.9,683.7l9.1-42.8h5.8l9.1,42.8h-5.7l-2-10.8h-8.7l-2,10.8H553.9z M562.4,668.7h7.2l-3.6-19.4
                        L562.4,668.7z"/>
                    <path class="st12" d="M582.3,683.7v-42.8h16.5v4.3h-10.6v14.2h8.2v4.3h-8.2v20.1H582.3z"/>
                    <path class="st12" d="M603,683.7v-42.8h8.6c4.3,0,7.5,0.9,9.5,2.7c2,1.8,3,4.7,3,8.7c0,5.5-1.8,8.8-5.3,10l6.1,21.5h-5.8
                        l-5.6-20.1H609v20.1H603z M609,659.3h2.2c2.6,0,4.5-0.5,5.6-1.5c1.1-1,1.7-2.9,1.7-5.6c0-2.6-0.5-4.4-1.4-5.5
                        c-1-1-2.8-1.6-5.4-1.6H609V659.3z"/>
                    <path class="st12" d="M630.8,683.7v-42.8h5.9v42.8H630.8z"/>
                    <path class="st12" d="M654.3,684.2c-1.8,0-3.3-0.2-4.7-0.7c-1.3-0.5-2.4-1.1-3.3-2c-0.9-0.8-1.6-1.9-2.1-3.1
                        c-0.5-1.2-0.9-2.5-1.1-3.9c-0.2-1.4-0.3-2.9-0.3-4.6v-15.1c0-1.8,0.1-3.4,0.3-4.8c0.2-1.4,0.6-2.7,1.1-4c0.5-1.2,1.2-2.2,2.1-3
                        c0.9-0.8,2-1.4,3.3-1.9c1.3-0.4,2.9-0.7,4.7-0.7c3.9,0,6.6,1,8.3,3.1c1.7,2.1,2.5,5.2,2.5,9.2v3.4h-5.7v-3c0-0.7,0-1.2,0-1.5
                        c0-0.4,0-0.8-0.1-1.4c0-0.6-0.1-1-0.1-1.3c-0.1-0.3-0.2-0.7-0.3-1.1c-0.1-0.4-0.3-0.7-0.4-1c-0.2-0.2-0.4-0.5-0.6-0.7
                        c-0.3-0.3-0.6-0.5-0.9-0.6c-0.3-0.1-0.7-0.2-1.2-0.3c-0.4-0.1-0.9-0.1-1.5-0.1c-0.8,0-1.6,0.1-2.2,0.3s-1.1,0.5-1.5,0.9
                        s-0.7,0.8-1,1.3c-0.3,0.5-0.4,1.1-0.6,1.8c-0.1,0.7-0.2,1.4-0.2,2.1s-0.1,1.5-0.1,2.5v17c0,3.2,0.4,5.5,1.2,6.7
                        c0.8,1.3,2.2,1.9,4.3,1.9c0.8,0,1.5-0.1,2.1-0.3c0.6-0.2,1-0.5,1.4-0.9c0.4-0.4,0.7-0.8,0.9-1.2c0.2-0.4,0.4-1,0.5-1.7
                        c0.1-0.7,0.2-1.4,0.2-2c0-0.6,0-1.4,0-2.4v-3.2h5.7v3.2c0,1.6-0.1,3.1-0.3,4.4s-0.6,2.5-1.1,3.6s-1.2,2.1-2,2.8
                        c-0.8,0.7-1.8,1.3-3.1,1.7C657.4,684,655.9,684.2,654.3,684.2z"/>
                    <path class="st12" d="M668.4,683.7l9.1-42.8h5.8l9.1,42.8h-5.7l-2-10.8h-8.7l-2,10.8H668.4z M676.9,668.7h7.2l-3.6-19.4
                        L676.9,668.7z"/>
                </g>
            </g>
            <g id="naHover">
                <path class="st10" d="M452.3,573.7H242.6c-1.7,0-3-1.3-3-3v-75.9c0-1.7,1.3-3,3-3h209.8c1.7,0,3,1.3,3,3v75.9
                    C455.3,572.3,454,573.7,452.3,573.7z"/>
                <path class="st10" d="M239.6,601.4l55.8-55.8h-55.8L239.6,601.4L239.6,601.4z"/>
                <g class="st11">
                    <path class="st12" d="M268.6,551.6v-42.8h4.1l12.2,28.5v-28.5h5v42.8H286l-12.4-29.3v29.3H268.6z"/>
                    <path class="st12" d="M294.2,551.6l9.1-42.8h5.8l9.1,42.8h-5.7l-2-10.8h-8.7l-2,10.8H294.2z M302.7,536.5h7.2l-3.6-19.4
                        L302.7,536.5z"/>
                    <path class="st12" d="M322.4,551.6l0.8-42.8h5.8l7.6,34.8l7.6-34.8h5.8l0.8,42.8h-4.8l-0.5-31.1l-7.3,31.1H335l-7.2-31.1
                        l-0.5,31.1H322.4z"/>
                    <path class="st12" d="M357.8,551.6v-42.8h5.9v42.8H357.8z"/>
                    <path class="st12" d="M370.6,551.6v-42.8h9.8c3.9,0,6.8,0.9,8.7,2.6c1.9,1.7,2.8,4.4,2.8,8.1c0,5.5-2.1,8.5-6.2,9
                        c2.5,0.6,4.4,1.8,5.5,3.6c1.2,1.8,1.7,4.2,1.7,7.2c0,3.9-0.9,6.9-2.7,9c-1.8,2.2-4.6,3.2-8.3,3.2H370.6z M376.6,526.6h3.5
                        c2.5,0,4.2-0.5,5.1-1.6c1-1.1,1.4-2.9,1.4-5.5c0-0.8-0.1-1.6-0.2-2.2c-0.1-0.6-0.3-1.2-0.5-1.6s-0.5-0.8-0.9-1.1
                        c-0.4-0.3-0.8-0.5-1.2-0.7s-0.9-0.3-1.6-0.4c-0.7-0.1-1.3-0.2-2-0.2c-0.6,0-1.4,0-2.4,0h-1.4V526.6z M376.6,547.3h4
                        c2.6,0,4.3-0.6,5.3-1.8c0.9-1.2,1.4-3.3,1.4-6.1c0-2.7-0.6-4.8-1.7-6.1c-1.1-1.4-3-2-5.5-2h-3.5V547.3z"/>
                    <path class="st12" d="M398.6,551.6v-42.8h5.9v42.8H398.6z"/>
                    <path class="st12" d="M409.1,551.6l9.1-42.8h5.8l9.1,42.8h-5.7l-2-10.8h-8.7l-2,10.8H409.1z M417.5,536.5h7.2l-3.6-19.4
                        L417.5,536.5z"/>
                </g>
            </g>
            <g id="mzHover">
            <path class="st10" d="M610.8,479.2H291.6c-1.7,0-3-1.3-3-3v-75.9c0-1.7,1.3-3,3-3h319.2c1.7,0,3,1.3,3,3v75.9
                C613.8,477.9,612.4,479.2,610.8,479.2z"/>
            <path class="st10" d="M613.8,451.1H558l55.8,55.8V451.1z"/>
            <g class="st11">
                <path class="st12" d="M324,461.5l0.8-42.8h5.8l7.6,34.8l7.6-34.8h5.8l0.8,42.8h-4.8l-0.5-31.1l-7.3,31.1h-3.4l-7.2-31.1l-0.5,31.1
                    H324z"/>
                <path class="st12" d="M370,462c-2.1,0-4-0.3-5.5-1c-1.5-0.6-2.7-1.6-3.6-2.8c-0.9-1.2-1.6-2.7-2-4.3c-0.4-1.7-0.6-3.6-0.6-5.8
                    v-16.2c0-4.5,0.9-7.8,2.7-10.1c1.8-2.3,4.8-3.5,9-3.5c4.2,0,7.1,1.2,9,3.5c1.8,2.3,2.7,5.7,2.7,10.1v16.3c0,4.5-0.9,7.9-2.8,10.3
                    C377.1,460.8,374.2,462,370,462z M367.1,456.8c0.8,0.4,1.7,0.5,2.9,0.5c1.2,0,2.1-0.2,2.9-0.5c0.8-0.4,1.3-0.9,1.7-1.7
                    c0.4-0.7,0.7-1.6,0.8-2.4c0.1-0.9,0.2-2,0.2-3.3v-18.8c0-1.3-0.1-2.4-0.2-3.2c-0.1-0.9-0.4-1.7-0.8-2.4c-0.4-0.7-1-1.3-1.7-1.6
                    c-0.8-0.3-1.7-0.5-2.9-0.5c-1.2,0-2.1,0.2-2.9,0.5s-1.3,0.9-1.7,1.6c-0.4,0.7-0.7,1.5-0.8,2.4c-0.1,0.9-0.2,1.9-0.2,3.2v18.8
                    c0,1.3,0.1,2.4,0.2,3.3c0.1,0.9,0.4,1.7,0.8,2.4C365.8,455.8,366.3,456.4,367.1,456.8z"/>
                <path class="st12" d="M386.3,461.5v-4.3l12.6-34.3h-11.8v-4.3h18.2v2.6l-13.3,36h13.3v4.3H386.3z"/>
                <path class="st12" d="M407.3,461.5l9.1-42.8h5.8l9.1,42.8h-5.7l-2-10.8H415l-2,10.8H407.3z M415.8,446.4h7.2l-3.6-19.4
                    L415.8,446.4z"/>
                <path class="st12" d="M435.6,461.5l0.8-42.8h5.8l7.6,34.8l7.6-34.8h5.8l0.8,42.8h-4.8l-0.5-31.1l-7.3,31.1h-3.4l-7.2-31.1
                    l-0.5,31.1H435.6z"/>
                <path class="st12" d="M470.6,461.5v-42.8h9.8c3.9,0,6.8,0.9,8.7,2.6c1.9,1.7,2.8,4.4,2.8,8.1c0,5.5-2.1,8.5-6.2,9
                    c2.5,0.6,4.4,1.8,5.5,3.6c1.2,1.8,1.7,4.2,1.7,7.2c0,3.9-0.9,6.9-2.7,9c-1.8,2.2-4.6,3.2-8.3,3.2H470.6z M476.6,436.5h3.5
                    c2.5,0,4.2-0.5,5.1-1.6c1-1.1,1.4-2.9,1.4-5.5c0-0.8-0.1-1.6-0.2-2.2s-0.3-1.2-0.5-1.6s-0.5-0.8-0.9-1.1c-0.4-0.3-0.8-0.5-1.2-0.7
                    s-0.9-0.3-1.6-0.4c-0.7-0.1-1.3-0.2-2-0.2c-0.6,0-1.4,0-2.4,0h-1.4V436.5z M476.6,457.2h4c2.6,0,4.3-0.6,5.3-1.8s1.4-3.3,1.4-6.1
                    c0-2.7-0.6-4.8-1.7-6.1s-3-2-5.5-2h-3.5V457.2z"/>
                <path class="st12" d="M498.7,461.5v-42.8h5.9v42.8H498.7z"/>
                <path class="st12" d="M531.1,470.2c-2.2-1.1-4.8-3.9-7.7-8.2c-0.1,0-0.3,0-0.5,0c-0.2,0-0.4,0-0.5,0c-4.2,0-7.2-1.2-9-3.6
                    c-1.8-2.4-2.7-5.8-2.7-10.3v-16.2c0-4.4,0.9-7.8,2.7-10.1s4.8-3.5,9-3.5c4.2,0,7.1,1.2,9,3.5c1.8,2.3,2.8,5.7,2.8,10.1v16.3
                    c0,6.8-2.1,11.1-6.3,12.9c1.8,2.3,3.2,3.8,4.2,4.5L531.1,470.2z M519.5,456.8c0.8,0.4,1.7,0.5,2.9,0.5c1.2,0,2.1-0.2,2.9-0.5
                    c0.8-0.4,1.4-0.9,1.8-1.7c0.4-0.7,0.7-1.6,0.8-2.5c0.1-0.9,0.2-2,0.2-3.3v-18.8c0-1.3-0.1-2.4-0.2-3.2c-0.1-0.9-0.4-1.7-0.8-2.4
                    c-0.4-0.7-1-1.2-1.8-1.6c-0.8-0.3-1.7-0.5-2.9-0.5c-1.2,0-2.1,0.2-2.9,0.5s-1.4,0.9-1.8,1.6c-0.4,0.7-0.7,1.5-0.8,2.4
                    c-0.1,0.9-0.2,2-0.2,3.2v18.8c0,1.3,0.1,2.4,0.2,3.3c0.1,0.9,0.4,1.7,0.8,2.5C518.1,455.8,518.7,456.4,519.5,456.8z"/>
                <path class="st12" d="M555.9,461.3c-1.3,0.5-2.9,0.7-4.8,0.7c-1.8,0-3.4-0.2-4.8-0.7s-2.5-1.1-3.3-1.9c-0.8-0.8-1.5-1.9-2-3.2
                    c-0.5-1.3-0.9-2.6-1-4.1s-0.3-3.1-0.3-5v-28.4h5.7v28.7c0,1.2,0,2.3,0.1,3.2c0.1,0.9,0.2,1.8,0.5,2.7s0.6,1.6,1,2.2
                    c0.4,0.6,1,1,1.7,1.4c0.7,0.4,1.6,0.5,2.5,0.5c1,0,1.8-0.2,2.5-0.5c0.7-0.4,1.2-0.8,1.7-1.4c0.4-0.6,0.7-1.3,1-2.2
                    s0.4-1.8,0.5-2.7c0.1-0.9,0.1-2,0.1-3.2v-28.7h5.7v28.4c0,1.9-0.1,3.6-0.3,5c-0.2,1.4-0.5,2.8-1,4.1s-1.2,2.3-2,3.2
                    C558.3,460.1,557.2,460.8,555.9,461.3z"/>
                <path class="st12" d="M568.8,461.5v-42.8h16.6v4.4h-10.6v14.2h8.6v4.3h-8.6v15.7h10.8v4.3H568.8z"/>
            </g>
        </g>
            <g id="mgHover">
            <path class="st10" d="M846.4,504.3H543.6c-1.7,0-3-1.3-3-3v-75.9c0-1.7,1.3-3,3-3h302.8c1.7,0,3,1.3,3,3v75.9
                C849.4,503,848.1,504.3,846.4,504.3z"/>
            <path class="st10" d="M849.4,476.2h-55.8l55.8,55.8V476.2z"/>
            <g class="st11">
                <path class="st12" d="M571.7,486.6l0.8-42.8h5.8l7.6,34.8l7.6-34.8h5.8l0.8,42.8h-4.8l-0.5-31.1l-7.3,31.1h-3.4l-7.2-31.1
                    l-0.5,31.1H571.7z"/>
                <path class="st12" d="M604.4,486.6l9.1-42.8h5.8l9.1,42.8h-5.7l-2-10.8h-8.7l-2,10.8H604.4z M612.9,471.5h7.2l-3.6-19.4
                    L612.9,471.5z"/>
                <path class="st12" d="M632.8,486.6v-42.8h9.3c4.6,0,7.9,1.1,9.8,3.2c1.9,2.1,2.9,5.4,2.9,9.9v15.8c0,4.7-0.9,8.2-2.8,10.5
                    c-1.9,2.3-5,3.5-9.4,3.5H632.8z M638.8,482.3h3.4c0.9,0,1.7-0.1,2.4-0.3c0.7-0.2,1.3-0.4,1.7-0.6c0.5-0.2,0.9-0.7,1.2-1.2
                    c0.3-0.6,0.6-1.1,0.7-1.5c0.2-0.5,0.3-1.2,0.4-2.1c0.1-0.9,0.1-1.7,0.2-2.3c0-0.6,0-1.6,0-2.8v-13.9c0-1,0-1.9-0.1-2.6
                    s-0.1-1.4-0.2-2.1c-0.1-0.7-0.3-1.3-0.5-1.7c-0.2-0.4-0.5-0.9-0.8-1.3c-0.3-0.4-0.7-0.7-1.2-0.9s-1.1-0.4-1.7-0.5
                    c-0.7-0.1-1.4-0.2-2.3-0.2h-3.2V482.3z"/>
                <path class="st12" d="M657.7,486.6l9.1-42.8h5.8l9.1,42.8h-5.7l-2-10.8h-8.7l-2,10.8H657.7z M666.2,471.5h7.2l-3.6-19.4
                    L666.2,471.5z"/>
                <path class="st12" d="M696.2,487.1c-3.9,0-6.7-1.2-8.4-3.7c-1.7-2.5-2.6-6.1-2.6-10.9v-14.3c0-2,0.1-3.7,0.3-5.2
                    c0.2-1.5,0.6-2.9,1.1-4.1s1.2-2.3,2.1-3.1c0.9-0.8,2-1.4,3.3-1.8s2.9-0.7,4.7-0.7c4,0,6.8,1,8.6,3s2.6,5.2,2.6,9.5v1.6h-5.6v-1.3
                    c0-1.2,0-2.2-0.1-3c-0.1-0.8-0.2-1.5-0.4-2.2c-0.2-0.7-0.5-1.3-0.9-1.6c-0.4-0.4-0.9-0.7-1.6-0.9c-0.7-0.2-1.5-0.3-2.4-0.3
                    c-0.7,0-1.4,0.1-2,0.2s-1.1,0.4-1.4,0.6c-0.4,0.3-0.7,0.6-1,1.1c-0.3,0.5-0.5,0.9-0.6,1.4c-0.2,0.5-0.3,1-0.4,1.8
                    c-0.1,0.7-0.1,1.4-0.2,2c0,0.6,0,1.3,0,2.2v15.9c0,3.3,0.4,5.7,1.2,7.1c0.8,1.4,2.3,2.1,4.5,2.1c2.2,0,3.8-0.8,4.6-2.3
                    c0.8-1.5,1.2-4,1.2-7.5v-3h-5.4v-4.2h10.9v21.2h-3.8l-0.6-4.9C702.5,485.3,699.9,487.1,696.2,487.1z"/>
                <path class="st12" d="M724.3,487.1c-3.6,0-6.3-1.1-8.2-3.3c-1.9-2.2-2.9-5.3-3.2-9.1l5.3-1.4c0.4,6.1,2.4,9.2,6.1,9.2
                    c1.5,0,2.7-0.4,3.5-1.3c0.8-0.9,1.2-2.1,1.2-3.8c0-0.9-0.1-1.7-0.3-2.5c-0.2-0.8-0.6-1.5-1.1-2.2c-0.5-0.7-1-1.3-1.4-1.7
                    c-0.4-0.5-1.1-1.1-1.9-1.8l-7.2-6.4c-1.4-1.3-2.5-2.7-3.2-4.1c-0.7-1.5-1-3.2-1-5.3c0-3.1,0.9-5.5,2.7-7.2s4.3-2.6,7.4-2.6
                    c3.4-0.1,6,0.8,7.7,2.6c1.7,1.8,2.7,4.6,3.1,8.4l-5,1.4c-0.1-0.9-0.2-1.8-0.3-2.5c-0.1-0.7-0.3-1.5-0.6-2.2s-0.6-1.3-1-1.8
                    c-0.4-0.5-0.9-0.8-1.6-1.1c-0.7-0.3-1.4-0.4-2.3-0.3c-3.2,0.2-4.7,1.8-4.7,4.7c0,1.3,0.2,2.3,0.6,3.2c0.4,0.8,1.2,1.7,2.2,2.7
                    l7.2,6.4c1.9,1.7,3.4,3.5,4.5,5.4c1.1,1.9,1.7,4.1,1.7,6.6c0,3.1-0.9,5.6-2.8,7.5C729.9,486.1,727.4,487.1,724.3,487.1z"/>
                <path class="st12" d="M750,487.1c-1.8,0-3.3-0.2-4.7-0.7c-1.3-0.5-2.4-1.1-3.3-2c-0.9-0.8-1.6-1.9-2.1-3.1
                    c-0.5-1.2-0.9-2.5-1.1-3.9c-0.2-1.4-0.3-2.9-0.3-4.6v-15.1c0-1.8,0.1-3.4,0.3-4.8c0.2-1.4,0.6-2.7,1.1-4c0.5-1.2,1.2-2.2,2.1-3
                    c0.9-0.8,2-1.4,3.3-1.9c1.3-0.4,2.9-0.7,4.7-0.7c3.9,0,6.6,1,8.3,3.1c1.7,2.1,2.5,5.2,2.5,9.2v3.4h-5.7v-3c0-0.7,0-1.2,0-1.5
                    c0-0.4,0-0.8-0.1-1.4c0-0.6-0.1-1-0.1-1.3c-0.1-0.3-0.2-0.7-0.3-1.1c-0.1-0.4-0.3-0.7-0.4-1c-0.2-0.2-0.4-0.5-0.6-0.7
                    c-0.3-0.3-0.6-0.5-0.9-0.6c-0.3-0.1-0.7-0.2-1.2-0.3c-0.4-0.1-0.9-0.1-1.5-0.1c-0.8,0-1.6,0.1-2.2,0.3s-1.1,0.5-1.5,0.9
                    s-0.7,0.8-1,1.3c-0.3,0.5-0.4,1.1-0.6,1.8c-0.1,0.7-0.2,1.4-0.2,2.1s-0.1,1.5-0.1,2.5v17c0,3.2,0.4,5.5,1.2,6.7
                    c0.8,1.3,2.2,1.9,4.3,1.9c0.8,0,1.5-0.1,2.1-0.3c0.6-0.2,1-0.5,1.4-0.9c0.4-0.4,0.7-0.8,0.9-1.2c0.2-0.4,0.4-1,0.5-1.7
                    c0.1-0.7,0.2-1.4,0.2-2c0-0.6,0-1.4,0-2.4v-3.2h5.7v3.2c0,1.6-0.1,3.1-0.3,4.4s-0.6,2.5-1.1,3.6s-1.2,2.1-2,2.8
                    c-0.8,0.7-1.8,1.3-3.1,1.7C753.1,486.9,751.7,487.1,750,487.1z"/>
                <path class="st12" d="M764.2,486.6l9.1-42.8h5.8l9.1,42.8h-5.7l-2-10.8h-8.7l-2,10.8H764.2z M772.6,471.5h7.2l-3.6-19.4
                    L772.6,471.5z"/>
                <path class="st12" d="M792.6,486.6v-42.8h8.6c4.3,0,7.5,0.9,9.5,2.7c2,1.8,3,4.7,3,8.7c0,5.5-1.8,8.8-5.3,10l6.1,21.5h-5.8
                    l-5.6-20.1h-4.6v20.1H792.6z M798.5,462.2h2.2c2.6,0,4.5-0.5,5.6-1.5c1.1-1,1.7-2.9,1.7-5.6c0-2.6-0.5-4.4-1.4-5.5
                    c-1-1-2.8-1.6-5.4-1.6h-2.6V462.2z"/>
            </g>
        </g>
            <g id="ugHover">
            <path class="st10" d="M564.4,191h-214c-1.7,0-3-1.3-3-3v-75.9c0-1.7,1.3-3,3-3h213.9c1.7,0,3,1.3,3,3V188
                C567.4,189.7,566,191,564.4,191z"/>
            <path class="st10" d="M567.4,81.9l-55.8,55.8h55.8V81.9z"/>
                <g class="st11">
                    <path class="st12" d="M397.6,173c-1.3,0.5-2.9,0.7-4.8,0.7c-1.8,0-3.4-0.2-4.8-0.7s-2.5-1.1-3.3-1.9c-0.8-0.8-1.5-1.9-2-3.2
                        s-0.9-2.6-1-4.1s-0.3-3.1-0.3-5v-28.4h5.7v28.7c0,1.2,0,2.3,0.1,3.2c0.1,0.9,0.2,1.8,0.5,2.7s0.6,1.6,1,2.2c0.4,0.6,1,1,1.7,1.4
                        c0.7,0.4,1.6,0.5,2.5,0.5c1,0,1.8-0.2,2.5-0.5c0.7-0.4,1.2-0.8,1.7-1.4s0.7-1.3,1-2.2c0.2-0.9,0.4-1.8,0.5-2.7
                        c0.1-0.9,0.1-2,0.1-3.2v-28.7h5.7v28.4c0,1.9-0.1,3.6-0.3,5c-0.2,1.4-0.5,2.8-1,4.1c-0.5,1.3-1.2,2.3-2,3.2
                        C400,171.9,398.9,172.6,397.6,173z"/>
                    <path class="st12" d="M420.8,173.8c-3.9,0-6.7-1.2-8.4-3.7c-1.7-2.5-2.6-6.1-2.6-10.9v-14.3c0-2,0.1-3.7,0.3-5.2
                        c0.2-1.5,0.6-2.9,1.1-4.1s1.2-2.3,2.1-3.1c0.9-0.8,2-1.4,3.3-1.8c1.3-0.4,2.9-0.7,4.7-0.7c4,0,6.8,1,8.6,3c1.7,2,2.6,5.2,2.6,9.5
                        v1.6h-5.6v-1.3c0-1.2,0-2.2-0.1-3s-0.2-1.5-0.4-2.2c-0.2-0.7-0.5-1.3-0.9-1.6c-0.4-0.4-0.9-0.7-1.6-0.9c-0.7-0.2-1.5-0.3-2.4-0.3
                        c-0.7,0-1.4,0.1-2,0.2c-0.6,0.2-1.1,0.4-1.4,0.6c-0.4,0.3-0.7,0.6-1,1.1s-0.5,0.9-0.6,1.4c-0.2,0.5-0.3,1-0.4,1.8
                        c-0.1,0.7-0.1,1.4-0.2,2c0,0.6,0,1.3,0,2.2v15.9c0,3.3,0.4,5.7,1.2,7.1c0.8,1.4,2.3,2.1,4.5,2.1c2.2,0,3.8-0.8,4.6-2.3
                        c0.8-1.5,1.2-4,1.2-7.5v-3h-5.4V152h10.9v21.2h-3.8l-0.6-4.9C427.1,172,424.6,173.8,420.8,173.8z"/>
                    <path class="st12" d="M436.5,173.3l9.1-42.8h5.8l9.1,42.8h-5.7l-2-10.8h-8.7l-2,10.8H436.5z M445,158.2h7.2l-3.6-19.4L445,158.2z"
                        />
                    <path class="st12" d="M464.9,173.3v-42.8h4.1l12.2,28.5v-28.5h5v42.8h-3.8L470,144v29.3H464.9z"/>
                    <path class="st12" d="M492.8,173.3v-42.8h9.3c4.6,0,7.9,1.1,9.8,3.2s2.9,5.4,2.9,9.9v15.8c0,4.7-0.9,8.2-2.8,10.5
                        c-1.9,2.3-5,3.5-9.4,3.5H492.8z M498.8,169h3.4c0.9,0,1.7-0.1,2.4-0.3c0.7-0.2,1.3-0.4,1.7-0.6c0.5-0.2,0.9-0.7,1.2-1.2
                        c0.3-0.6,0.6-1.1,0.7-1.5c0.2-0.5,0.3-1.2,0.4-2.1s0.1-1.7,0.2-2.3c0-0.6,0-1.6,0-2.8v-13.9c0-1,0-1.9-0.1-2.6
                        c0-0.7-0.1-1.4-0.2-2.1c-0.1-0.7-0.3-1.3-0.5-1.7c-0.2-0.4-0.5-0.9-0.8-1.3c-0.3-0.4-0.7-0.7-1.2-0.9c-0.5-0.2-1.1-0.4-1.7-0.5
                        c-0.7-0.1-1.4-0.2-2.3-0.2h-3.2V169z"/>
                    <path class="st12" d="M517.8,173.3l9.1-42.8h5.8l9.1,42.8h-5.7l-2-10.8h-8.7l-2,10.8H517.8z M526.2,158.2h7.2l-3.6-19.4
                        L526.2,158.2z"/>
                </g>
            </g>
        
        </g>

        </svg>
